<svg width="87" height="87" viewBox="0 0 87 87" fill="none" xmlns="http://www.w3.org/2000/svg">
<g clip-path="url(#clip0)">
<path d="M72.7823 54.2535C76.4177 48.7324 78.5371 42.1287 78.5371 35.0378C78.5371 15.7178 62.8187 0 43.4987 0C24.1787 0 8.46091 15.7178 8.46091 35.0378C8.46091 42.1287 10.5803 48.7324 14.215 54.2535L0.509766 74.2413L16.1924 71.3174L19.1169 87L32.0416 68.15C35.6338 69.3965 39.4883 70.0755 43.4987 70.0755C47.5098 70.0755 51.3642 69.3965 54.9558 68.15L67.8811 87L70.805 71.3174L86.4876 74.2413L72.7823 54.2535ZM21.8881 73.8908L20.2931 65.3363L11.7392 66.932L17.5112 58.5135C20.2758 61.5708 23.5714 64.1382 27.2499 66.0724L21.8881 73.8908ZM13.5884 35.0378C13.5884 18.5454 27.0063 5.12753 43.4987 5.12753C59.9917 5.12753 73.4096 18.5454 73.4096 35.0378C73.4096 51.5308 59.9917 64.9487 43.4987 64.9487C27.0063 64.9487 13.5884 51.5308 13.5884 35.0378ZM66.7043 65.3363L65.1093 73.8908L59.7481 66.0724C63.4267 64.1382 66.7222 61.5708 69.4868 58.5135L75.2588 66.9313L66.7043 65.3363Z" fill="#2C2C2C"/>
<path d="M37.2528 42.7328L28.916 34.3967L25.2905 38.0221L37.2528 49.9844L61.7076 25.5302L58.0821 21.9048L37.2528 42.7328Z" fill="#2C2C2C"/>
</g>
<defs>
<clipPath id="clip0">
<rect width="87" height="87" fill="white"/>
</clipPath>
</defs>
</svg>
