<svg width="69" height="69" viewBox="0 0 69 69" fill="none" xmlns="http://www.w3.org/2000/svg">
<g clip-path="url(#clip0)">
<path d="M64.6875 25.875V61.8125C64.6977 63.227 64.2764 64.611 63.48 65.78C63.2242 66.1847 62.9253 66.5607 62.5888 66.9012L34.0688 38.3813L33.0625 37.375L52.6988 17.7387L53.935 18.515L63.9975 24.6387C64.4256 24.904 64.6865 25.3714 64.6875 25.875Z" fill="#CFD8DC"/>
<path d="M52.6988 17.7388L32.0564 38.3812L3.53638 66.9012C3.19974 66.5606 2.90096 66.1847 2.64518 65.7799C1.84872 64.611 1.42744 63.227 1.43768 61.8125V15.8124C1.43768 11.8429 4.65561 8.625 8.62512 8.625H37.375C37.6363 8.63389 37.8921 8.70276 38.1226 8.8262L51.4626 16.9624L52.6988 17.7388Z" fill="#4CAF50"/>
<path d="M62.5891 66.9011C62.2486 67.2379 61.8728 67.5368 61.4678 67.7923C60.2989 68.5889 58.9148 69.0102 57.5003 68.9998H8.62536C7.21086 69.0102 5.82682 68.5889 4.65787 67.7923C4.2529 67.5367 3.87704 67.2379 3.53662 66.9011L32.0566 38.3812L33.0629 37.3749L34.0692 38.3812L62.5891 66.9011Z" fill="#2196F3"/>
<path d="M63.4802 65.7799C62.9715 66.5952 62.2831 67.2836 61.4678 67.7923L32.0566 38.3811C31.5065 37.8198 31.5156 36.9188 32.0769 36.3687C32.6303 35.8264 33.5157 35.8264 34.069 36.3687L63.4802 65.7799Z" fill="#FAFAFA"/>
<path d="M53.935 18.515L34.0687 38.3811L4.65747 67.7923C3.84214 67.2836 3.15376 66.5952 2.64502 65.7799L51.4624 16.9625L53.935 18.515Z" fill="#FFC107"/>
<path d="M51.7499 0C43.0216 0.0110508 35.9486 7.08408 35.9375 15.8124C35.9422 16.681 36.0279 17.5473 36.1934 18.3999C36.5399 20.6288 37.3711 22.7545 38.6285 24.6272C39.2954 25.7771 40.066 26.9732 40.8796 28.2497C45.5541 34.9603 48.7766 42.5727 50.3412 50.5998C50.4992 51.3778 51.258 51.8805 52.036 51.7225C52.6018 51.6077 53.0438 51.1656 53.1588 50.5998C54.722 42.5718 57.9437 34.9585 62.6175 28.2467C63.4369 26.973 64.2017 25.7857 64.8111 24.7191C66.0921 22.829 66.9419 20.6806 67.3009 18.4257C67.4688 17.5645 67.5564 16.6896 67.5625 15.8123C67.5513 7.08408 60.4784 0.0110508 51.7499 0Z" fill="#F44336"/>
<path d="M51.7499 22.9999C55.7195 22.9999 58.9374 19.782 58.9374 15.8124C58.9374 11.8429 55.7195 8.625 51.7499 8.625C47.7804 8.625 44.5625 11.8429 44.5625 15.8124C44.5625 19.782 47.7804 22.9999 51.7499 22.9999Z" fill="#C62828"/>
<path d="M16.8579 36.0682C22.262 36.0682 26.6589 31.6713 26.6589 26.2668C26.6589 25.4122 25.9661 24.7192 25.1113 24.7192H18.9212C18.0666 24.7192 17.3736 25.412 17.3736 26.2668C17.3736 27.1215 18.0664 27.8145 18.9212 27.8145H23.3834C22.6831 30.7687 20.0229 32.9731 16.8577 32.9731C13.1602 32.9731 10.1518 29.9646 10.1518 26.267C10.1518 22.5694 13.1602 19.5609 16.8577 19.5609C18.4926 19.5609 20.0671 20.1558 21.2914 21.2358C21.9327 21.8014 22.9105 21.7399 23.4757 21.0991C24.041 20.4581 23.9797 19.4801 23.339 18.9148C21.5487 17.3356 19.2471 16.4659 16.8577 16.4659C11.4536 16.4659 7.05664 20.8628 7.05664 26.2672C7.05664 31.6716 11.4536 36.0682 16.8579 36.0682Z" fill="white"/>
</g>
<defs>
<clipPath id="clip0">
<rect width="69" height="69" fill="white"/>
</clipPath>
</defs>
</svg>
