<svg width="32" height="28" viewBox="0 0 32 28" fill="none" xmlns="http://www.w3.org/2000/svg">
<path d="M29.3491 3.04573C25.8691 -0.26577 20.2049 -0.26577 16.7239 3.04498L16.0001 3.73248L15.277 3.04529C11.7956 -0.265895 6.13212 -0.26552 2.65069 3.04529C0.941312 4.67117 0 6.82773 0 9.11711C0 11.4072 0.941313 13.5634 2.65094 15.19L15.2271 27.1295C15.4434 27.3354 15.7219 27.4379 16 27.4379C16.2781 27.4379 16.5562 27.335 16.7729 27.1292L29.3491 15.19C31.0583 13.5638 32 11.4073 32 9.11748C32 6.82773 31.0583 4.67154 29.3491 3.04573ZM27.8018 13.5619L16 24.7668L4.19856 13.5623C2.93913 12.3647 2.24563 10.786 2.24563 9.11748C2.24563 7.44898 2.93913 5.87029 4.19856 4.67267C5.51225 3.42261 7.23763 2.79798 8.96338 2.79798C10.6895 2.79798 12.4156 3.42336 13.7293 4.67342L15.2264 6.09529C15.6597 6.50736 16.3398 6.50736 16.7733 6.09529L18.2707 4.67267C20.8984 2.17292 25.1737 2.17292 27.8014 4.67267C29.0605 5.87036 29.7544 7.44898 29.7544 9.11748C29.7544 10.786 29.0605 12.3643 27.8018 13.5619Z" fill="black"/>
</svg>
