<svg width="30" height="30" viewBox="0 0 30 30" fill="none" xmlns="http://www.w3.org/2000/svg">
<path d="M12.6562 30H4.6875C2.10274 30 0 27.8973 0 25.3125V4.6875C0 2.10274 2.10274 0 4.6875 0H12.6562C15.241 0 17.3438 2.10274 17.3438 4.6875V7.96875C17.3438 8.61603 16.8192 9.14062 16.1719 9.14062C15.5246 9.14062 15 8.61603 15 7.96875V4.6875C15 3.39523 13.9485 2.34375 12.6562 2.34375H4.6875C3.39523 2.34375 2.34375 3.39523 2.34375 4.6875V25.3125C2.34375 26.6048 3.39523 27.6562 4.6875 27.6562H12.6562C13.9485 27.6562 15 26.6048 15 25.3125V22.0898C15 21.4426 15.5246 20.918 16.1719 20.918C16.8192 20.918 17.3438 21.4426 17.3438 22.0898V25.3125C17.3438 27.8973 15.241 30 12.6562 30ZM23.5943 22.8275L28.9632 17.4902C29.631 16.8262 29.9989 15.9418 29.9989 15.0002C29.9989 14.0584 29.631 13.174 28.9632 12.51L23.5943 7.1727C22.9353 6.51764 21.9543 6.32492 21.0954 6.68243C20.2398 7.03812 19.687 7.86552 19.687 8.78998V13.8284H5.85938C5.2121 13.8284 4.6875 14.353 4.6875 15.0002C4.6875 15.6475 5.2121 16.1721 5.85938 16.1721H19.687C20.9795 16.1721 22.0308 15.1206 22.0308 13.8284V8.92342L27.3106 14.1721C27.5329 14.393 27.6551 14.6869 27.6551 15.0002C27.6551 15.3133 27.5329 15.6075 27.3106 15.8281L22.0308 21.077V19.9221C22.0308 19.2748 21.5062 18.7502 20.8589 18.7502C20.2116 18.7502 19.687 19.2748 19.687 19.9221V21.2103C19.687 22.1347 20.24 22.9621 21.0956 23.318C21.3821 23.4373 21.6824 23.4952 21.9798 23.4952C22.5732 23.4952 23.1553 23.264 23.5943 22.8275Z" fill="#292929"/>
</svg>
