<svg width="55" height="55" viewBox="0 0 55 55" fill="none" xmlns="http://www.w3.org/2000/svg">
<g clip-path="url(#clip0)">
<path d="M27.5007 0C12.3373 0 0.000976562 12.3363 0.000976562 27.4997C0.000976562 42.6637 12.3373 55.0003 27.5007 55.0003C28.6354 55.0003 29.5548 54.0806 29.5548 52.9461C29.5548 51.8117 28.6354 50.892 27.5007 50.892C14.6026 50.892 4.10926 40.3984 4.10926 27.4997C4.10926 14.6016 14.6026 4.10828 27.5007 4.10828C40.3988 4.10828 50.8922 14.6016 50.8922 27.4997V33.8621C50.8922 36.2372 48.9596 38.1695 46.5842 38.1695C44.2091 38.1695 42.2768 36.2372 42.2768 33.8621V27.4997C42.2768 19.3516 35.6482 12.7228 27.5004 12.7228C19.3523 12.7228 12.7235 19.3516 12.7235 27.4997C12.7235 35.6484 19.3523 42.2778 27.5004 42.2778C32.0226 42.2778 36.0744 40.2337 38.787 37.0233C40.0392 40.1012 43.0615 42.2778 46.5842 42.2778C51.2246 42.2778 55.0004 38.5025 55.0004 33.8621V27.4997C55.0004 12.3363 42.6641 0 27.5007 0ZM27.5007 38.1695C21.6179 38.1695 16.8321 33.3831 16.8321 27.4997C16.8321 21.6169 21.6182 16.8311 27.5007 16.8311C33.3832 16.8311 38.1688 21.6169 38.1688 27.4997C38.1688 33.3831 33.3832 38.1695 27.5007 38.1695Z" fill="#8C8C8C"/>
</g>
<defs>
<clipPath id="clip0">
<rect width="55" height="55" fill="white"/>
</clipPath>
</defs>
</svg>
