<svg width="78" height="78" viewBox="0 0 78 78" fill="none" xmlns="http://www.w3.org/2000/svg">
<path d="M54.6538 15.6494C48.6284 15.651 43.1361 17.9349 38.9968 21.6861C34.8542 17.9397 29.3652 15.6542 23.3462 15.6542C23.2963 15.6542 23.2447 15.6542 23.1964 15.6542C10.379 15.738 0 26.1653 0 39.0005C0 51.8872 10.4595 62.345 23.3446 62.345C29.3635 62.345 34.8526 60.0628 38.9936 56.3132C38.1286 55.532 37.3459 54.6671 36.6066 53.762H41.4272C40.7008 54.6526 39.9084 55.4869 39.0564 56.2633H39.0532C39.0338 56.2842 39.0129 56.2971 38.9936 56.3148C43.1377 60.0676 48.6332 62.3547 54.6618 62.3531C67.555 62.3483 78.0032 51.892 78 39.0005C78 38.9956 78 38.9924 78 38.9892C78.0016 26.0976 67.547 15.6462 54.6538 15.6494ZM36.874 24.0972H41.3113C41.9652 24.8896 42.5724 25.724 43.1232 26.5969H35.2069C35.7175 25.7626 36.278 24.9041 36.874 24.0972ZM33.8282 29.0483H44.4697C44.8482 29.8569 45.1832 30.6928 45.4764 31.5496H32.5671C32.696 31.308 33.1469 30.3352 33.8282 29.0483ZM9.53015 44.9469L10.9459 36.0208L7.752 44.9469H6.03989L5.81763 36.0208L4.30524 44.9469H1.907L3.89452 33.1087H7.52168L7.64892 40.3727L10.0987 33.1087H14.0335L12.0733 44.9469H9.53015ZM18.0102 44.9276L18.0923 43.9822C18.0536 43.987 17.2966 45.1241 15.5427 45.1241C14.6246 45.1241 13.1428 44.6232 13.1428 42.4456C13.1428 39.6769 15.4009 38.7589 17.5511 38.7589C17.8894 38.7589 18.619 38.8201 18.619 38.8201C18.619 38.8201 18.7011 38.6509 18.7011 38.1935C18.7011 37.4414 18.0247 37.3383 17.0985 37.3383C15.467 37.3383 14.3894 37.7748 14.3894 37.7748L14.7502 35.6326C14.7502 35.6326 16.0581 35.085 17.7605 35.085C18.6415 35.085 21.1751 35.1784 21.1751 38.0824L20.199 44.9276H18.0102ZM27.2601 41.9125C27.2601 45.2159 24.0597 45.0742 23.5008 45.0742C21.415 45.0742 20.7708 44.7859 20.7112 44.7698L21.043 42.5954C21.0462 42.5761 22.0899 42.9739 23.2512 42.9739C23.9212 42.9739 24.7909 42.9079 24.7909 42.1074C24.7909 40.9091 21.6792 41.1958 21.6792 38.3498C21.6792 35.8388 23.5443 35.1043 25.3837 35.1043C26.8042 35.1043 27.6772 35.2992 27.6772 35.2992L27.3631 37.4929C27.3631 37.4929 26.015 37.3818 25.6655 37.3818C24.7813 37.3818 24.2997 37.575 24.2997 38.1935C24.2981 39.4369 27.2601 38.8281 27.2601 41.9125ZM31.103 42.779C31.3237 42.779 31.5733 42.7033 31.7441 42.7033L31.4332 44.8149C31.1836 44.8841 30.4765 45.1354 29.5697 45.1418C28.4117 45.1515 27.5886 44.504 27.5886 43.0351C27.5886 42.0494 29.0012 33.9269 29.0559 33.8738H31.5411L31.2883 35.3266H32.5285L32.2112 37.6668H30.8953L30.1962 41.9785C30.1431 42.3216 30.2381 42.779 31.103 42.779ZM36.5695 35.0528C39.298 35.0528 40.1146 37.05 40.1146 38.688C40.1146 39.3435 39.786 40.9542 39.786 40.9542H34.735C34.735 40.9542 34.2679 42.9433 36.9368 42.9433C38.1882 42.9433 39.5766 42.3313 39.5766 42.3313L39.1385 44.7263C39.1385 44.7263 38.3364 45.1354 36.5132 45.1354C34.5369 45.1354 32.2192 44.2995 32.2192 40.7883C32.2208 37.7458 34.0698 35.0528 36.5695 35.0528ZM43.1522 51.3573H34.8703C34.3662 50.552 33.8959 49.7257 33.4916 48.8576H44.5132C44.1073 49.7209 43.6531 50.5552 43.1522 51.3573ZM42.5966 44.9646H40.0453L41.5963 35.3298H43.9108L43.6886 36.7262C43.6886 36.7262 44.5132 35.2074 45.6262 35.2074C45.9499 35.2074 46.1061 35.2396 46.1061 35.2396C45.776 35.9129 45.4844 36.5297 45.1816 38.1227C43.455 37.5106 43.323 40.8495 42.5966 44.9646ZM52.3168 44.8149C52.3168 44.8149 50.9799 45.1563 50.1424 45.1563C47.1756 45.1563 45.6697 43.1092 45.6697 40.0087C45.6697 35.333 48.4609 32.843 51.3294 32.843C52.626 32.843 54.1287 33.4518 54.1287 33.4518L53.7228 36.0852C53.7228 36.0852 52.7065 35.3749 51.4422 35.3749C49.751 35.3749 48.2338 36.9888 48.2338 39.9217C48.2338 41.3665 48.9409 42.713 50.7061 42.713C51.5453 42.713 52.7613 42.1025 52.7613 42.1025L52.3168 44.8149ZM58.3003 44.9324L58.384 43.9805C58.3438 43.9854 57.5868 45.1225 55.8344 45.1225C54.9163 45.1225 53.4345 44.6216 53.4345 42.444C53.4345 39.6753 55.6927 38.7572 57.8412 38.7572C58.1795 38.7572 58.9107 38.8184 58.9107 38.8184C58.9107 38.8184 58.9945 38.6509 58.9945 38.1935C58.9945 37.4414 58.318 37.3383 57.3903 37.3383C55.7587 37.3383 54.6828 37.7748 54.6828 37.7748L55.0436 35.6326C55.0436 35.6326 56.3514 35.085 58.0555 35.085C58.9349 35.085 61.47 35.1784 61.4684 38.0824L60.4924 44.9276C60.4907 44.9324 58.3003 44.9324 58.3003 44.9324ZM63.4656 44.9646H60.9143L62.4654 35.3298H64.7815L64.5592 36.7262C64.5592 36.7262 65.3855 35.2074 66.4984 35.2074C66.8222 35.2074 66.9768 35.2396 66.9768 35.2396C66.6482 35.9129 66.3535 36.5297 66.0523 38.1227C64.3241 37.5106 64.192 40.8495 63.4656 44.9646ZM71.0823 44.9389L71.1902 44.0514C71.1902 44.0514 70.3656 45.0919 68.8741 45.0919C66.8077 45.0919 65.7946 43.0963 65.7946 41.0572C65.7946 37.9036 67.6919 35.1542 69.9694 35.1542C71.435 35.1575 72.3708 36.4508 72.3708 36.4508L72.9088 33.1248L75.4004 33.12L73.4999 44.9389H71.0823ZM75.998 44.6055C75.9319 44.7247 75.8385 44.8165 75.7193 44.8873C75.6018 44.9534 75.4761 44.9872 75.3441 44.9872C75.2152 44.9872 75.0912 44.9534 74.972 44.8873C74.8528 44.8165 74.7594 44.7247 74.6934 44.6055C74.6257 44.4847 74.5935 44.3623 74.5935 44.2318C74.5935 44.0997 74.6273 43.9741 74.6934 43.8549C74.7594 43.7357 74.8576 43.6391 74.9752 43.5747C75.0976 43.5086 75.2184 43.4748 75.3441 43.4748C75.4729 43.4748 75.5953 43.5086 75.7145 43.5747C75.8369 43.6407 75.9303 43.7325 75.998 43.8549C76.0672 43.9757 76.0978 44.1013 76.0978 44.2318C76.0978 44.3623 76.0656 44.4863 75.998 44.6055Z" fill="#9D9D9D"/>
<path d="M75.798 51.7289C75.7819 51.7177 75.7674 51.6999 75.7417 51.6903C75.7159 51.6806 75.6756 51.6758 75.6128 51.6758H75.4614V51.9174H75.6225C75.6982 51.9174 75.7481 51.9109 75.7771 51.8836C75.8045 51.861 75.8174 51.8336 75.8174 51.795C75.8174 51.7692 75.8109 51.7515 75.798 51.7289Z" fill="#9D9D9D"/>
<path d="M76.3183 51.5842C76.2491 51.4586 76.1541 51.37 76.0333 51.304C75.9125 51.2379 75.7901 51.2041 75.6644 51.2041C75.5356 51.2041 75.4132 51.2379 75.294 51.304C75.1748 51.37 75.0765 51.4618 75.0105 51.5842C74.9412 51.7034 74.9106 51.829 74.9106 51.9579C74.9106 52.0867 74.9445 52.214 75.0105 52.3315C75.0798 52.4507 75.1732 52.5474 75.2908 52.6134C75.4099 52.6794 75.5356 52.7133 75.6676 52.7133C75.7965 52.7133 75.9221 52.6794 76.0397 52.6134C76.1573 52.5474 76.2523 52.4507 76.3183 52.3315C76.386 52.214 76.4182 52.0883 76.4182 51.9579C76.4182 51.8274 76.3844 51.7018 76.3183 51.5842ZM75.8545 52.3766L75.7836 52.2494C75.7272 52.1495 75.6805 52.0835 75.6451 52.0577C75.6225 52.0416 75.5871 52.0287 75.542 52.0287H75.4663V52.375H75.3342V51.5617H75.6145C75.7111 51.5617 75.7804 51.5697 75.819 51.5858C75.8625 51.6019 75.8996 51.6245 75.9221 51.6647C75.9479 51.7018 75.9592 51.7421 75.9592 51.7839C75.9592 51.8435 75.9366 51.8935 75.8964 51.9402C75.8545 51.982 75.7965 52.0094 75.7272 52.0142C75.7562 52.0239 75.7788 52.04 75.7965 52.0577C75.8303 52.0899 75.869 52.1431 75.9173 52.2172L76.0171 52.3766H75.8545Z" fill="#9D9D9D"/>
<path d="M17.7525 40.6055C15.9308 40.6055 15.562 41.4237 15.562 42.105C15.562 42.4561 15.7633 43.0424 16.5348 43.0424C18.0311 43.0424 18.342 41.0806 18.2937 40.6635C18.2228 40.649 18.1777 40.6071 17.7525 40.6055Z" fill="#9D9D9D"/>
<path d="M36.5793 37.2764C35.2248 37.2764 34.9639 38.8178 34.9639 38.9804H37.7229C37.7229 38.8564 37.9822 37.2764 36.5793 37.2764Z" fill="#9D9D9D"/>
<path d="M70.3993 37.5459C69.3057 37.5459 68.4408 38.8151 68.4424 40.743C68.4424 41.9188 68.8612 42.6726 69.7567 42.6726C71.1032 42.6726 71.7522 40.9154 71.7522 39.6059C71.7522 38.1612 71.2932 37.5459 70.3993 37.5459Z" fill="#9D9D9D"/>
<path d="M75.885 43.9189C75.8287 43.819 75.7498 43.7417 75.6499 43.6853C75.55 43.6289 75.4486 43.6016 75.3423 43.6016C75.2392 43.6016 75.1345 43.6306 75.0346 43.6853C74.9348 43.7369 74.8558 43.8174 74.7995 43.9189C74.7431 44.0203 74.7141 44.1282 74.7141 44.2329C74.7141 44.3408 74.7431 44.4471 74.7963 44.5454C74.8558 44.6453 74.9315 44.721 75.0314 44.7805C75.1313 44.8353 75.2343 44.8675 75.3423 44.8675C75.4502 44.8675 75.5565 44.8353 75.6531 44.7805C75.753 44.7242 75.8303 44.6469 75.8883 44.5454C75.9446 44.4455 75.9704 44.3408 75.9704 44.2329C75.9704 44.1266 75.9414 44.0203 75.885 43.9189ZM75.5355 44.6469L75.4631 44.5212C75.4067 44.4198 75.3616 44.3553 75.3278 44.3312C75.3004 44.3102 75.2682 44.3006 75.2215 44.3006H75.1474V44.6453H75.0121V43.8335H75.2939C75.389 43.8335 75.4598 43.8415 75.5001 43.8593C75.5404 43.8738 75.5758 43.9011 75.6032 43.9366C75.6306 43.972 75.6402 44.0123 75.6402 44.0558C75.6402 44.1154 75.6177 44.1653 75.5758 44.2104C75.5339 44.2571 75.4759 44.2764 75.4083 44.2845C75.4405 44.2974 75.4614 44.3119 75.4776 44.3263C75.5114 44.3602 75.55 44.4085 75.5967 44.4858L75.6966 44.6469H75.5355Z" fill="#9D9D9D"/>
<path d="M58.0457 40.6055C56.2241 40.6055 55.8552 41.4237 55.8552 42.105C55.8552 42.4561 56.0549 43.0424 56.8281 43.0424C58.3243 43.0424 58.6336 41.0806 58.5869 40.6635C58.5144 40.649 58.4693 40.6071 58.0457 40.6055Z" fill="#9D9D9D"/>
<path d="M75.4811 43.9997C75.4682 43.9836 75.4505 43.9707 75.4263 43.9595C75.399 43.9514 75.3587 43.9434 75.2943 43.9434V43.945H75.1477V44.1898H75.3072C75.3829 44.1898 75.4328 44.1801 75.4634 44.156C75.4875 44.1318 75.502 44.1012 75.502 44.0658C75.502 44.0384 75.4956 44.0223 75.4811 43.9997Z" fill="#9D9D9D"/>
</svg>
