<svg width="42" height="42" viewBox="0 0 42 42" fill="none" xmlns="http://www.w3.org/2000/svg">
<path d="M16.6836 28.5616V13.4384L29.7774 21L16.6836 28.5616ZM17.9961 15.7114V26.2885L27.1524 21L17.9961 15.7114Z" fill="#B57E57"/>
<path d="M21 42C9.3934 42 0 32.6074 0 21C0 9.39258 9.39258 0 21 0C32.6074 0 42 9.39258 42 21C42 32.6074 32.6074 42 21 42ZM21 1.3125C10.1186 1.3125 1.3125 10.1177 1.3125 21C1.3125 31.8823 10.1177 40.6875 21 40.6875C31.8823 40.6875 40.6875 31.8823 40.6875 21C40.6875 10.1177 31.8823 1.3125 21 1.3125Z" fill="#B57E57"/>
</svg>
