<svg width="87" height="87" viewBox="0 0 87 87" fill="none" xmlns="http://www.w3.org/2000/svg">
<g clip-path="url(#clip0)">
<path d="M61.9151 53.8675C61.0705 53.8675 60.3165 53.2766 60.1425 52.4175C59.9431 51.4351 60.5739 50.4781 61.5563 50.2824C72.105 48.1328 83.0054 34.2563 83.6398 14.5036H70.6876C69.6871 14.5 68.8751 13.688 68.8751 12.6875C68.8751 11.687 69.6871 10.875 70.6876 10.875H85.4776C86.4781 10.875 87.2901 11.687 87.2901 12.6875C87.2901 36.1014 74.4033 51.359 62.2776 53.8313C62.1544 53.853 62.0348 53.8675 61.9151 53.8675Z" fill="#2C2C2C"/>
<path d="M25.0524 53.795C24.9219 53.795 24.7878 53.7805 24.6536 53.7515C12.702 51.069 0 35.7679 0 12.6875C0 11.687 0.812 10.875 1.8125 10.875H16.3125C17.313 10.875 18.27 11.687 18.27 12.6875C18.27 13.688 17.603 14.5 16.6025 14.5H3.654C4.28475 33.9808 15.0401 47.879 25.4439 50.2135C26.4226 50.4346 27.0353 51.4025 26.8141 52.3776C26.6293 53.2223 25.8825 53.795 25.0524 53.795Z" fill="#2C2C2C"/>
<path d="M48.9377 76.1252H38.0627C37.0622 76.1252 36.2502 75.3132 36.2502 74.3127V61.1177C36.2502 60.1172 37.0622 59.3052 38.0627 59.3052C39.0632 59.3052 39.8752 60.1172 39.8752 61.1177V72.5002H47.1252V61.1177C47.1252 60.1172 47.9372 59.3052 48.9377 59.3052C49.9382 59.3052 50.7502 60.1172 50.7502 61.1177V74.3127C50.7502 75.3132 49.9382 76.1252 48.9377 76.1252Z" fill="#2C2C2C"/>
<path d="M59.8127 87H27.1877C26.1872 87 25.3752 86.188 25.3752 85.1875V81.5625C25.3752 76.5673 29.4425 72.5 34.4377 72.5H52.5627C57.558 72.5 61.6252 76.5673 61.6252 81.5625V85.1875C61.6252 86.188 60.8132 87 59.8127 87ZM29.0002 83.375H58.0002V81.5625C58.0002 78.5646 55.5606 76.125 52.5627 76.125H34.4377C31.4399 76.125 29.0002 78.5646 29.0002 81.5625V83.375Z" fill="#2C2C2C"/>
<path d="M43.4998 65.25C43.304 65.25 43.1119 65.2174 42.9234 65.1558C41.767 64.7679 14.652 55.419 14.4998 32.6359V5.4375C14.4998 2.43963 16.9394 0 19.9373 0H67.0623C70.0601 0 72.4998 2.43963 72.4998 5.4375V32.625C72.4998 55.419 45.2361 64.7715 44.0725 65.1558C43.8876 65.2174 43.6919 65.25 43.4998 65.25ZM19.9373 3.625C18.9368 3.625 18.1248 4.437 18.1248 5.4375V32.625C18.248 51.0907 39.6863 60.059 43.4998 61.509C47.3278 60.0626 68.8748 51.098 68.8748 32.625V5.4375C68.8748 4.437 68.0628 3.625 67.0623 3.625H19.9373Z" fill="#2C2C2C"/>
</g>
<defs>
<clipPath id="clip0">
<rect width="87" height="87" fill="white"/>
</clipPath>
</defs>
</svg>
