<svg width="87" height="87" viewBox="0 0 87 87" fill="none" xmlns="http://www.w3.org/2000/svg">
<g clip-path="url(#clip0)">
<path d="M79.7499 32.625H7.25006C6.24956 32.625 5.4375 33.4371 5.4375 34.4376V85.1876C5.4375 86.1879 6.24956 87 7.25006 87H79.7501C80.7506 87 81.5627 86.1879 81.5627 85.1874V34.4376C81.5625 33.4371 80.7504 32.625 79.7499 32.625ZM77.9376 83.3751H9.06244V36.2499H77.9374V83.3751H77.9376Z" fill="#2C2C2C"/>
<path d="M83.3752 18.125H3.62506C2.62456 18.125 1.8125 18.9371 1.8125 19.9376V34.4375C1.8125 35.438 2.62456 36.2501 3.62506 36.2501H83.375C84.3755 36.2501 85.1876 35.438 85.1876 34.4375V19.9376C85.1876 18.9369 84.3757 18.125 83.3752 18.125ZM81.5626 32.625H5.43761V21.7499H81.5626V32.625Z" fill="#2C2C2C"/>
<path d="M43.4998 18.125C42.4993 18.125 41.6873 18.9371 41.6873 19.9376V85.1876C41.6873 86.1881 42.4993 87.0001 43.4998 87.0001C44.5003 87.0001 45.3124 86.1881 45.3124 85.1876V19.9376C45.3124 18.9369 44.5003 18.125 43.4998 18.125Z" fill="#2C2C2C"/>
<path d="M45.3523 19.5098C43.4891 10.7698 32.3749 1.392 24.969 0.137807C24.5123 0.0470684 24.0446 0 23.5626 0C19.5641 0 16.3125 3.25163 16.3125 7.25006C16.3125 8.92124 16.8962 10.5525 17.9546 11.8466C17.9691 11.8575 17.9799 11.8757 17.9908 11.8901C23.3739 18.7667 41.2924 21.4022 43.3296 21.6812C43.413 21.6921 43.4963 21.6994 43.5761 21.6994C44.08 21.6994 44.5585 21.4927 44.9065 21.1194C45.3088 20.6878 45.4757 20.0861 45.3523 19.5098ZM20.7966 9.58818C20.7639 9.54111 20.7278 9.50118 20.6914 9.46125C20.1984 8.82693 19.9374 8.06194 19.9374 7.25006C19.9374 5.24906 21.5651 3.62511 23.5624 3.62511C23.8016 3.62511 24.0373 3.65043 24.3163 3.70124C29.7503 4.62205 37.9536 11.1977 40.9007 17.6139C34.5898 16.4503 23.9359 13.7351 20.7966 9.58818Z" fill="#2C2C2C"/>
<path d="M63.4378 0C62.9557 0 62.4881 0.0470684 62.082 0.126932C54.6291 1.392 43.5148 10.7698 41.6516 19.5098C41.5284 20.0861 41.6951 20.6878 42.0975 21.1193C42.4419 21.489 42.924 21.6992 43.4242 21.6992C43.5039 21.6992 43.5874 21.6919 43.6671 21.6847C45.7043 21.4056 63.6227 18.7703 69.0058 11.8937C69.0202 11.8792 69.0311 11.8611 69.0457 11.8466C70.1042 10.5523 70.6879 8.92107 70.6879 7.25006C70.6879 3.25163 67.4362 0 63.4378 0ZM66.3088 9.46482C66.2726 9.50475 66.2362 9.54451 66.2036 9.59175C63.068 13.7316 52.4141 16.4539 46.0993 17.6175C49.05 11.1939 57.2571 4.62188 62.7345 3.69393C62.9629 3.65043 63.1986 3.62511 63.4378 3.62511C65.4352 3.62511 67.0627 5.24906 67.0627 7.25006C67.0629 8.06194 66.8019 8.82319 66.3088 9.46482Z" fill="#2C2C2C"/>
</g>
<defs>
<clipPath id="clip0">
<rect width="87" height="87" fill="white"/>
</clipPath>
</defs>
</svg>
