<svg width="92" height="92" viewBox="0 0 92 92" fill="none" xmlns="http://www.w3.org/2000/svg">
<g clip-path="url(#clip0)">
<path d="M24.9167 72.8333H17.25C16.192 72.8333 15.3334 71.9747 15.3334 70.9167C15.3334 69.8587 16.192 69 17.25 69H24.9167C25.9747 69 26.8334 69.8587 26.8334 70.9167C26.8334 71.9747 25.9747 72.8333 24.9167 72.8333Z" fill="black"/>
<path d="M87.2084 72.833H82.4167C81.3587 72.833 80.5 71.9743 80.5 70.9163C80.5 69.8583 81.3587 68.9997 82.4167 68.9997H85.6175L88.2012 55.2303C88.1667 48.1847 82.1484 42.1663 74.75 42.1663H62.1652L56.0664 68.9997H67.0834C68.1414 68.9997 69 69.8583 69 70.9163C69 71.9743 68.1414 72.833 67.0834 72.833H53.6667C53.084 72.833 52.532 72.5685 52.1679 72.1124C51.8037 71.66 51.6657 71.062 51.796 70.4947L58.765 39.828C58.9644 38.9502 59.7387 38.333 60.6357 38.333H74.75C84.2605 38.333 92 46.0725 92 55.583L89.0905 71.269C88.9219 72.1775 88.1322 72.833 87.2084 72.833Z" fill="black"/>
<path d="M74.75 80.4997C69.4676 80.4997 65.1666 76.2025 65.1666 70.9163C65.1666 65.6302 69.4676 61.333 74.75 61.333C80.0323 61.333 84.3333 65.6302 84.3333 70.9163C84.3333 76.2025 80.0323 80.4997 74.75 80.4997ZM74.75 65.1663C71.5798 65.1663 69 67.7462 69 70.9163C69 74.0865 71.5798 76.6663 74.75 76.6663C77.9201 76.6663 80.5 74.0865 80.5 70.9163C80.5 67.7462 77.9201 65.1663 74.75 65.1663Z" fill="black"/>
<path d="M32.5833 80.4997C27.301 80.4997 23 76.2025 23 70.9163C23 65.6302 27.301 61.333 32.5833 61.333C37.8657 61.333 42.1667 65.6302 42.1667 70.9163C42.1667 76.2025 37.8657 80.4997 32.5833 80.4997ZM32.5833 65.1663C29.4132 65.1663 26.8333 67.7462 26.8333 70.9163C26.8333 74.0865 29.4132 76.6663 32.5833 76.6663C35.7535 76.6663 38.3333 74.0865 38.3333 70.9163C38.3333 67.7462 35.7535 65.1663 32.5833 65.1663Z" fill="black"/>
<path d="M24.9167 38.3333H9.58341C8.52541 38.3333 7.66675 37.4747 7.66675 36.4167C7.66675 35.3587 8.52541 34.5 9.58341 34.5H24.9167C25.9747 34.5 26.8334 35.3587 26.8334 36.4167C26.8334 37.4747 25.9747 38.3333 24.9167 38.3333Z" fill="black"/>
<path d="M24.9166 49.8333H5.74992C4.69192 49.8333 3.83325 48.9747 3.83325 47.9167C3.83325 46.8587 4.69192 46 5.74992 46H24.9166C25.9746 46 26.8333 46.8587 26.8333 47.9167C26.8333 48.9747 25.9746 49.8333 24.9166 49.8333Z" fill="black"/>
<path d="M24.9167 61.3333H1.91667C0.858667 61.3333 0 60.4747 0 59.4167C0 58.3587 0.858667 57.5 1.91667 57.5H24.9167C25.9747 57.5 26.8333 58.3587 26.8333 59.4167C26.8333 60.4747 25.9747 61.3333 24.9167 61.3333Z" fill="black"/>
<path d="M53.6667 72.833H40.25C39.192 72.833 38.3334 71.9744 38.3334 70.9164C38.3334 69.8584 39.192 68.9997 40.25 68.9997H52.1372L60.8465 30.6663H17.25C16.192 30.6663 15.3334 29.8077 15.3334 28.7497C15.3334 27.6917 16.192 26.833 17.25 26.833H63.25C63.8327 26.833 64.3847 27.0975 64.7489 27.5537C65.113 28.006 65.251 28.604 65.1207 29.1713L55.5374 71.338C55.338 72.2159 54.5599 72.833 53.6667 72.833Z" fill="black"/>
</g>
<defs>
<clipPath id="clip0">
<rect width="92" height="92" fill="white"/>
</clipPath>
</defs>
</svg>
