<svg width="193" height="32" viewBox="0 0 193 32" fill="none" xmlns="http://www.w3.org/2000/svg">
<g clip-path="url(#clip0)">
<path fill-rule="evenodd" clip-rule="evenodd" d="M154.25 25.9995H157.899V3.31648H164.492C167.258 3.31648 168.719 4.60793 168.719 7.35144V18.8871C168.719 20.6465 167.793 22.2188 166.533 22.5194C165.177 22.843 161.16 22.8105 159.487 22.8105L161.72 25.9985H165.193C167.419 26.0245 169.477 24.9784 170.632 23.9194C172.09 22.5786 172.604 20.8454 172.604 18.1935V8.04424C172.604 3.76063 171.089 1.20363 167.35 0.434708C164.84 -0.0817046 157.664 -0.00370209 154.25 0.0132069L154.25 25.9995Z" fill="#343434"/>
<path fill-rule="evenodd" clip-rule="evenodd" d="M134.031 25.9997H137.763L137.803 6.30219L147.588 25.9997H151.611L138.193 0.0136719H134.031V25.9997Z" fill="#343434"/>
<path fill-rule="evenodd" clip-rule="evenodd" d="M115.609 25.9997H131.438V22.9389L119.476 22.9098V3.29052L131.438 3.25774V0.0136719H115.609V25.9997Z" fill="#343434"/>
<path fill-rule="evenodd" clip-rule="evenodd" d="M101.977 25.9966H105.963L98.8638 0.0136719H95L101.977 25.9966Z" fill="#343434"/>
<path fill-rule="evenodd" clip-rule="evenodd" d="M181.089 25.9997H184.741L184.79 15.8698L176.507 0.0136719H172.878L181.079 15.9052L181.089 25.9997Z" fill="#343434"/>
<path fill-rule="evenodd" clip-rule="evenodd" d="M147.806 15.5001H151.653V0.0136719H147.806V15.5001Z" fill="#343434"/>
<path fill-rule="evenodd" clip-rule="evenodd" d="M104.643 16.278H108.477L112.966 0.0136719H109L104.643 16.278Z" fill="#343434"/>
<path fill-rule="evenodd" clip-rule="evenodd" d="M183.879 11.0436H187.34L193 0.0205078H189.198L185.206 8.20199L183.879 11.0436Z" fill="#343434"/>
<path fill-rule="evenodd" clip-rule="evenodd" d="M123.274 14.6078H128.666L128.67 11.498H121.071L123.274 14.6078Z" fill="#343434"/>
</g>
<path d="M7.758 25.234C5.874 25.234 4.29 24.622 3.006 23.398C1.746 22.162 1.116 20.596 1.116 18.7C1.116 16.804 1.746 15.244 3.006 14.02C4.254 12.784 5.838 12.166 7.758 12.166C9.042 12.166 10.182 12.448 11.178 13.012V15.01C10.158 14.35 9.024 14.02 7.776 14.02C6.456 14.02 5.352 14.464 4.464 15.352C3.588 16.228 3.15 17.344 3.15 18.7C3.15 20.056 3.594 21.178 4.482 22.066C5.37 22.942 6.492 23.38 7.848 23.38C9.288 23.38 10.488 22.996 11.448 22.228V24.226C10.392 24.898 9.162 25.234 7.758 25.234ZM15.4547 25H13.5107V16.162H15.4547V17.692C15.7547 17.176 16.2047 16.756 16.8047 16.432C17.4047 16.096 18.0407 15.928 18.7127 15.928C18.7967 15.928 18.8567 15.934 18.8927 15.946V17.89C18.6767 17.866 18.4967 17.854 18.3527 17.854C17.6927 17.854 17.0987 18.022 16.5707 18.358C16.0427 18.694 15.6707 19.102 15.4547 19.582V25ZM19.855 20.572C19.855 19.24 20.275 18.136 21.115 17.26C21.967 16.372 23.059 15.928 24.391 15.928C25.303 15.928 26.077 16.168 26.713 16.648C27.961 17.536 28.585 18.868 28.585 20.644V21.148H21.817C21.937 21.892 22.291 22.474 22.879 22.894C23.479 23.314 24.235 23.524 25.147 23.524C26.155 23.524 27.103 23.26 27.991 22.732V24.37C27.175 24.946 26.089 25.234 24.733 25.234C23.377 25.234 22.219 24.802 21.259 23.938C20.323 23.074 19.855 21.952 19.855 20.572ZM21.835 19.672H26.623C26.599 19.12 26.389 18.634 25.993 18.214C25.585 17.782 25.021 17.566 24.301 17.566C23.617 17.566 23.047 17.77 22.591 18.178C22.147 18.574 21.895 19.072 21.835 19.672ZM38.9038 23.488C39.0958 23.488 39.2698 23.446 39.4258 23.362V24.838C39.1618 25.03 38.7838 25.126 38.2918 25.126C37.2838 25.126 36.6658 24.706 36.4378 23.866C35.6338 24.778 34.5478 25.234 33.1798 25.234C32.2318 25.234 31.4398 24.97 30.8038 24.442C30.1798 23.926 29.8678 23.2 29.8678 22.264C29.8678 21.328 30.2098 20.608 30.8938 20.104C31.5658 19.588 32.4058 19.33 33.4138 19.33C34.4818 19.33 35.4238 19.558 36.2398 20.014V19.528C36.2398 18.244 35.3758 17.602 33.6478 17.602C32.6398 17.602 31.7098 17.866 30.8578 18.394V16.684C31.7338 16.18 32.8078 15.928 34.0798 15.928C35.3278 15.928 36.3178 16.228 37.0498 16.828C37.7938 17.416 38.1658 18.244 38.1658 19.312V22.606C38.1658 22.882 38.2318 23.098 38.3638 23.254C38.5078 23.41 38.6878 23.488 38.9038 23.488ZM36.2398 22.498V21.418C35.4958 20.998 34.7098 20.788 33.8818 20.788C33.2338 20.788 32.7238 20.908 32.3518 21.148C31.9918 21.388 31.8118 21.724 31.8118 22.156C31.8118 22.612 31.9798 22.96 32.3158 23.2C32.6638 23.44 33.1318 23.56 33.7198 23.56C34.1998 23.56 34.6678 23.464 35.1238 23.272C35.5798 23.068 35.9518 22.81 36.2398 22.498ZM41.9082 22.588V17.872H40.0182V16.162H41.9082V13.588H43.8522V16.162H46.6422V17.872H43.8522V22.03C43.8522 22.522 43.9662 22.882 44.1942 23.11C44.4222 23.338 44.7702 23.452 45.2382 23.452C45.7062 23.452 46.1502 23.344 46.5702 23.128V24.802C46.1502 25.09 45.4962 25.234 44.6082 25.234C43.7682 25.234 43.1082 25.006 42.6282 24.55C42.1482 24.094 41.9082 23.44 41.9082 22.588ZM47.8443 20.572C47.8443 19.24 48.2643 18.136 49.1043 17.26C49.9563 16.372 51.0483 15.928 52.3803 15.928C53.2923 15.928 54.0663 16.168 54.7023 16.648C55.9503 17.536 56.5743 18.868 56.5743 20.644V21.148H49.8063C49.9263 21.892 50.2803 22.474 50.8683 22.894C51.4683 23.314 52.2243 23.524 53.1363 23.524C54.1443 23.524 55.0923 23.26 55.9803 22.732V24.37C55.1643 24.946 54.0783 25.234 52.7223 25.234C51.3663 25.234 50.2083 24.802 49.2483 23.938C48.3123 23.074 47.8443 21.952 47.8443 20.572ZM49.8243 19.672H54.6123C54.5883 19.12 54.3783 18.634 53.9823 18.214C53.5743 17.782 53.0103 17.566 52.2903 17.566C51.6063 17.566 51.0363 17.77 50.5803 18.178C50.1363 18.574 49.8843 19.072 49.8243 19.672ZM62.2491 25.234C61.0011 25.234 59.9751 24.784 59.1711 23.884C58.3671 22.996 57.9651 21.892 57.9651 20.572C57.9651 19.264 58.3671 18.166 59.1711 17.278C59.9751 16.378 61.0011 15.928 62.2491 15.928C63.6051 15.928 64.6551 16.408 65.3991 17.368V12.4H67.3431V25H65.3991V23.794C64.6551 24.754 63.6051 25.234 62.2491 25.234ZM62.7711 23.524C63.3351 23.524 63.8511 23.38 64.3191 23.092C64.7871 22.792 65.1471 22.408 65.3991 21.94V19.204C65.1471 18.748 64.7811 18.376 64.3011 18.088C63.8331 17.788 63.3231 17.638 62.7711 17.638C61.9551 17.638 61.2771 17.926 60.7371 18.502C60.1971 19.066 59.9271 19.756 59.9271 20.572C59.9271 21.4 60.1971 22.102 60.7371 22.678C61.2771 23.242 61.9551 23.524 62.7711 23.524ZM79.5185 25.234C78.1625 25.234 77.1125 24.754 76.3685 23.794V25H74.4245V12.4H76.3685V17.368C77.1125 16.408 78.1625 15.928 79.5185 15.928C80.7665 15.928 81.7925 16.378 82.5965 17.278C83.4005 18.166 83.8025 19.264 83.8025 20.572C83.8025 21.892 83.4005 22.996 82.5965 23.884C81.7925 24.784 80.7665 25.234 79.5185 25.234ZM78.9965 23.524C79.8125 23.524 80.4905 23.242 81.0305 22.678C81.5705 22.102 81.8405 21.4 81.8405 20.572C81.8405 19.756 81.5705 19.066 81.0305 18.502C80.4905 17.926 79.8125 17.638 78.9965 17.638C78.4445 17.638 77.9285 17.788 77.4485 18.088C76.9805 18.376 76.6205 18.748 76.3685 19.204V21.94C76.6205 22.408 76.9805 22.792 77.4485 23.092C77.9165 23.38 78.4325 23.524 78.9965 23.524ZM86.4648 28.69C85.7328 28.69 85.1988 28.594 84.8628 28.402V26.692C85.2468 26.884 85.6728 26.98 86.1408 26.98C86.6328 26.98 87.0468 26.8 87.3828 26.44C87.7308 26.08 88.0788 25.492 88.4268 24.676L84.5568 16.162H86.7168L89.3808 22.39L91.9548 16.162H94.0608L89.8308 25.954C89.0388 27.778 87.9168 28.69 86.4648 28.69Z" fill="#343434"/>
<defs>
<clipPath id="clip0">
<rect width="98" height="26" fill="white" transform="translate(95)"/>
</clipPath>
</defs>
</svg>
