<svg xmlns="http://www.w3.org/2000/svg" width="178" height="178" viewBox="0 0 178 178">
  <g id="Group_1151" data-name="Group 1151" transform="translate(-222 -266)">
    <circle id="Ellipse_1112" data-name="Ellipse 1112" cx="89" cy="89" r="89" transform="translate(222 266)" fill="#f7f7f7"/>
    <path id="Intersection_2" data-name="Intersection 2" d="M-5503.249-5856.88c-18.952,0-34.373,14.708-34.519,32.833a88.757,88.757,0,0,1-10.573-5.352c2.862-21.579,22-38.3,45.1-38.3,23.192,0,42.391,16.857,45.128,38.566a88.608,88.608,0,0,1-10.606,5.29C-5468.751-5842.068-5484.223-5856.88-5503.249-5856.88Zm-30-44a29.87,29.87,0,0,1,30-29.669,29.874,29.874,0,0,1,30.013,29.669,29.874,29.874,0,0,1-30.013,29.668A29.88,29.88,0,0,1-5533.245-5900.882Zm10.937,0a18.978,18.978,0,0,0,19.065,18.851,18.98,18.98,0,0,0,19.072-18.851,18.988,18.988,0,0,0-19.072-18.852A18.979,18.979,0,0,0-5522.308-5900.882Z" transform="translate(5814 6261)" fill="#b8b8b8"/>
  </g>
</svg>
