<svg width="111" height="92" viewBox="0 0 111 92" fill="none" xmlns="http://www.w3.org/2000/svg">
<path d="M37.3086 7.00436C37.6057 7.07756 37.9116 7.15215 38.223 7.22935C42.6382 8.22201 49.3088 8.50191 52.5077 8.19929C61.4634 6.0143 64.6478 -4.16901e-05 79.5454 0C106.341 1.77596 110.738 22.0458 110.982 29.3325C111.351 40.3367 106.024 46.5421 102.084 51.0999C99.8821 53.6462 93.5314 59.5532 82.5867 59.799C71.642 60.0448 64.1416 51.5639 61.8899 47.5466C60.258 45.1852 57.1715 38.2364 57.8812 29.3325C58.5908 20.4285 64.5567 13.5139 67.451 11.1695C76.6762 3.76781 87.1365 5.65011 91.2134 7.51647C96.7677 10.0839 98.0726 15.6761 95.4269 18.2196C92.9978 20.5549 89.2517 18.9195 89.2517 15.6761C89.3711 14.7486 90.0193 12.839 91.657 12.6205C93.2946 12.402 93.5448 11.3573 93.4652 10.8623C89.5791 5.64562 72.2724 6.56957 68.4404 13.0644C63.1011 21.207 61.6577 44.0643 69.1909 52.9921C77.188 62.4696 90.025 58.4319 95.4439 55.2284C99.9699 52.5527 106.583 49.299 106.583 29.5991C106.583 9.41705 92.0834 2.10515 79.5454 1.57596C64.0393 1.57597 53.3265 11.7101 46.4861 17.0418L33.3945 29.6991C34.4999 32.1709 38.9463 37.4921 47.5267 37.1849L52.0642 46.3005C54.8345 53.3472 59.587 57.9084 65.1993 58.6254C45.0564 58.7579 44.105 46.8417 37.4792 36.724C36.0717 34.5747 35.5811 33.8105 35.2854 33.4463L32.0947 29.1991L41.1639 20.9168C51.1156 10.8287 43.7934 8.61047 38.223 7.22935C37.9059 7.15805 37.6004 7.08307 37.3086 7.00436Z" fill="white"/>
<path d="M32.2942 29.3987L32.7207 29.4111C31.1944 27.2987 27.6184 22.3262 23.9299 15.0225C18.4382 5.31149 8.09806 5.2988 3.59878 6.0988C13.0973 8.49879 15.8152 13.2718 17.0174 15.9799L20.6239 23.1469C23.065 23.2906 28.2377 24.9018 32.2942 29.3987Z" fill="white"/>
<path d="M23.8753 39.2001C20.5003 46.7587 14.8374 55.7766 26.7959 59C18.2001 57.7303 10.9569 57.4338 8.24942 57.5662L0.96026 57.7625C-0.724672 57.875 -1.19843 58.0666 8.24942 56.0021C17.6973 53.9375 15.2893 48.7289 23.8753 39.2001Z" fill="white"/>
<g clip-path="url(#clip0)">
<path d="M21.8257 70.0503V78.8609C21.8022 78.8609 21.7729 78.8903 21.7378 78.9492C21.7026 79.0028 21.6704 79.0295 21.6411 79.0295C21.6001 79.0295 21.5649 78.9733 21.5356 78.8609C21.2895 77.2064 21.0405 75.8892 20.7885 74.9094C20.5424 73.9242 20.1556 73.0648 19.6282 72.3312C19.1067 71.5977 18.3742 71.0435 17.4308 70.6687C17.044 70.5188 16.5899 70.4438 16.0684 70.4438C15.9863 70.4438 15.7842 70.4492 15.4619 70.4599C15.1396 70.4706 14.8349 70.476 14.5477 70.476L14.6268 91.4303H18.2922V91.7915H8.06964V91.4303H11.568L11.524 70.476C11.3775 70.476 11.1549 70.4706 10.856 70.4599C10.5572 70.4492 10.3374 70.4438 10.1968 70.4438C9.66939 70.4438 9.26213 70.5081 8.97498 70.6366C8.11946 71.0221 7.42505 71.5174 6.8918 72.1224C6.35856 72.7221 5.95423 73.3807 5.67881 74.0982C5.40926 74.8157 5.2276 75.4448 5.13384 75.9856C5.04009 76.521 4.89066 77.525 4.68557 78.9974H4.47461V70.0503H21.8257ZM25.2152 76.8886H36.9687V81.8857H36.7754C36.6908 81.1274 36.6222 80.5808 36.57 80.2458C36.5176 79.9072 36.4127 79.528 36.2557 79.1083C36.1026 78.6887 35.8729 78.3224 35.5669 78.0095C35.2606 77.693 34.8619 77.4776 34.3702 77.3635C33.6936 77.2126 32.9098 77.1371 32.0197 77.1371C31.8867 77.1371 31.6045 77.1408 31.1736 77.1482C30.7425 77.1555 30.3397 77.1592 29.965 77.1592L29.6205 77.2254V83.5146C29.9427 83.5146 30.3295 83.5183 30.7807 83.5257C31.2359 83.5294 31.5825 83.533 31.8201 83.5367C32.2634 83.5367 32.5917 83.3619 32.8052 83.0122C33.0188 82.6624 33.1677 82.252 33.2523 81.7808C33.341 81.3096 33.4256 80.8477 33.5061 80.3949L33.627 80.417V87.1534H33.4821C33.4215 86.7522 33.3671 86.3877 33.3187 86.0601C33.2705 85.7288 33.1979 85.4123 33.1013 85.1104C33.0046 84.8086 32.8516 84.5582 32.6421 84.3594C32.4366 84.157 32.1626 84.0558 31.8201 84.0558H29.6205V91.499C29.8541 91.499 30.2067 91.5064 30.6781 91.521C31.1493 91.5358 31.506 91.5432 31.7476 91.5432C32.5372 91.5432 33.2361 91.4659 33.8446 91.3112C34.4569 91.1566 35.0048 90.864 35.4883 90.4333C35.8106 90.1498 36.0684 89.8369 36.2617 89.4946C36.4591 89.1486 36.6022 88.8081 36.6908 88.4731C36.7836 88.1344 36.8601 87.7516 36.9204 87.3246C36.9809 86.8939 37.0394 86.4834 37.0956 86.0932H37.2408V91.8137L25.0882 91.8357V91.5432H27.3906L27.6142 91.2946V77.2254C27.3442 77.1813 26.9475 77.1518 26.4238 77.1371C25.9041 77.1224 25.5012 77.115 25.2152 77.115V76.8886ZM53.1085 76.8665V77.0929C51.6339 77.0929 50.6933 77.4537 50.2863 78.1752L47.4643 83.0619L52.2442 91.5432H54.0027V91.8137L47.3675 91.8357V91.521H49.9901L46.2074 84.8012L43.2826 90.0026C43.1496 90.275 43.0832 90.4793 43.0832 90.6155C43.0832 91.2339 43.8424 91.5432 45.3613 91.5432V91.7915L39.7957 91.7475V91.521C41.3346 91.521 42.3982 90.9928 42.9864 89.9363L46.1045 84.4423L41.8987 77.115H40.0918V76.8665H46.3523V77.115H43.9774L47.3192 82.6974L49.8693 78.2193C49.9661 78.0427 50.0145 77.8917 50.0145 77.7666C50.0145 77.4905 49.829 77.3138 49.4584 77.2365C49.0878 77.1555 48.548 77.115 47.839 77.115V76.8665H53.1085ZM68.529 76.8445V82.9017C68.5128 82.9017 68.4926 82.922 68.4685 82.9625C68.4444 82.9993 68.4221 83.0177 68.4021 83.0177C68.3738 83.0177 68.3497 82.979 68.3294 82.9017C68.1602 81.7643 67.989 80.8587 67.8159 80.1851C67.6467 79.5077 67.3808 78.9169 67.0182 78.4126C66.6596 77.9083 66.156 77.5273 65.5075 77.2696C65.2415 77.1666 64.9294 77.115 64.5707 77.115C64.5145 77.115 64.3754 77.1187 64.1538 77.1261C63.9321 77.1334 63.7228 77.1371 63.5253 77.1371L63.5797 91.5432H66.0997V91.7915H59.0717V91.5432H61.4767L61.4465 77.1371C61.3457 77.1371 61.1927 77.1334 60.9873 77.1261C60.7818 77.1187 60.6306 77.115 60.5341 77.115C60.1714 77.115 59.8914 77.1592 59.6941 77.2475C59.1059 77.5126 58.6284 77.8531 58.2619 78.269C57.8953 78.6813 57.6174 79.1341 57.4279 79.6274C57.2425 80.1207 57.1176 80.5532 57.0533 80.925C56.9889 81.2931 56.8861 81.9833 56.745 82.9956H56.6001V76.8445H68.529ZM70.8121 76.8665H77.568V77.115H75.2416V91.5432H77.568V91.8137H70.8121V91.5432H73.06V77.115H70.8121V76.8665ZM80.1834 76.8445H86.716V77.115H84.462V91.5432C85.6222 91.5175 86.5688 91.4622 87.3021 91.3774C88.0393 91.2892 88.702 91.105 89.2902 90.8254C89.8784 90.5419 90.3235 90.1167 90.6257 89.5498C91.1536 88.5743 91.5584 87.0743 91.8403 85.0497H92.0156V91.7915L79.9357 91.8137V91.5652H82.4314V91.1786V77.115H80.2075L80.1834 76.8445ZM94.6371 76.8886H106.391V81.8857H106.197C106.113 81.1274 106.044 80.5808 105.992 80.2458C105.94 79.9072 105.835 79.528 105.678 79.1083C105.525 78.6887 105.295 78.3224 104.989 78.0095C104.683 77.693 104.284 77.4776 103.792 77.3635C103.115 77.2126 102.332 77.1371 101.441 77.1371C101.308 77.1371 101.027 77.1408 100.595 77.1482C100.164 77.1555 99.7615 77.1592 99.3868 77.1592L99.0425 77.2254V83.5146C99.3647 83.5146 99.7516 83.5183 100.203 83.5257C100.658 83.5294 101.004 83.533 101.242 83.5367C101.685 83.5367 102.014 83.3619 102.227 83.0122C102.441 82.6624 102.59 82.252 102.674 81.7808C102.763 81.3096 102.848 80.8477 102.928 80.3949L103.049 80.417V87.1534H102.904C102.844 86.7522 102.789 86.3877 102.741 86.0601C102.692 85.7288 102.62 85.4123 102.523 85.1104C102.427 84.8086 102.273 84.5582 102.064 84.3594C101.858 84.157 101.585 84.0558 101.242 84.0558H99.0425V91.499C99.2761 91.499 99.6287 91.5064 100.1 91.521C100.571 91.5358 100.928 91.5432 101.17 91.5432C101.959 91.5432 102.658 91.4659 103.267 91.3112C103.879 91.1566 104.427 90.864 104.91 90.4333C105.233 90.1498 105.49 89.8369 105.684 89.4946C105.881 89.1486 106.024 88.8081 106.113 88.4731C106.205 88.1344 106.282 87.7516 106.342 87.3246C106.403 86.8939 106.461 86.4834 106.518 86.0932H106.663V91.8137L94.5102 91.8357V91.5432H96.8126L97.0363 91.2946V77.2254C96.7662 77.1813 96.3693 77.1518 95.8457 77.1371C95.3259 77.1224 94.9231 77.115 94.6371 77.115V76.8886Z" fill="white"/>
</g>
<defs>
<clipPath id="clip0">
<rect width="102.384" height="21.9999" fill="white" transform="translate(4.39844 70)"/>
</clipPath>
</defs>
</svg>
