<svg width="98" height="26" viewBox="0 0 98 26" fill="none" xmlns="http://www.w3.org/2000/svg">
<g clip-path="url(#clip0)">
<path fill-rule="evenodd" clip-rule="evenodd" d="M59.25 25.9995H62.8994V3.31648H69.492C72.2576 3.31648 73.7193 4.60793 73.7193 7.35144V18.8871C73.7193 20.6465 72.7929 22.2188 71.533 22.5194C70.1772 22.843 66.1603 22.8105 64.4868 22.8105L66.7196 25.9985H70.1931C72.4195 26.0245 74.4772 24.9784 75.6316 23.9194C77.0904 22.5786 77.6036 20.8454 77.6036 18.1935V8.04424C77.6036 3.76063 76.0885 1.20363 72.3502 0.434708C69.8395 -0.0817046 62.6644 -0.00370209 59.2505 0.0132069L59.25 25.9995Z" fill="#343434"/>
<path fill-rule="evenodd" clip-rule="evenodd" d="M39.0315 25.9997H42.7631L42.8029 6.30219L52.5881 25.9997H56.6107L43.1935 0.0136719H39.0315V25.9997Z" fill="#343434"/>
<path fill-rule="evenodd" clip-rule="evenodd" d="M20.6089 25.9997H36.4376V22.9389L24.4759 22.9098V3.29052L36.4376 3.25774V0.0136719H20.6089V25.9997Z" fill="#343434"/>
<path fill-rule="evenodd" clip-rule="evenodd" d="M6.97678 25.9966H10.963L3.86376 0.0136719H0L6.97678 25.9966Z" fill="#343434"/>
<path fill-rule="evenodd" clip-rule="evenodd" d="M86.089 25.9997H89.741L89.7905 15.8698L81.5071 0.0136719H77.8779L86.0786 15.9052L86.089 25.9997Z" fill="#343434"/>
<path fill-rule="evenodd" clip-rule="evenodd" d="M52.8057 15.5001H56.6526V0.0136719H52.8057V15.5001Z" fill="#343434"/>
<path fill-rule="evenodd" clip-rule="evenodd" d="M9.64282 16.278H13.4768L17.9659 0.0136719H13.9998L9.64282 16.278Z" fill="#343434"/>
<path fill-rule="evenodd" clip-rule="evenodd" d="M88.8794 11.0436H92.3398L97.9998 0.0205078H94.1984L90.2059 8.20199L88.8794 11.0436Z" fill="#343434"/>
<path fill-rule="evenodd" clip-rule="evenodd" d="M28.2739 14.6078H33.6662L33.6696 11.498H26.0706L28.2739 14.6078Z" fill="#343434"/>
</g>
<defs>
<clipPath id="clip0">
<rect width="98" height="26" fill="white"/>
</clipPath>
</defs>
</svg>
