<svg width="357" height="860" viewBox="0 0 357 860" fill="none" xmlns="http://www.w3.org/2000/svg">
<g clip-path="url(#clip0)">
<path d="M357 0H0V430H357V0Z" fill="white"/>
<path d="M62.4746 86H-71.4004V247.25H62.4746V86Z" stroke="url(#paint0_linear)" stroke-opacity="0.08" stroke-width="2"/>
<path d="M53.5494 96.75H-62.4756V236.5H53.5494V96.75Z" stroke="url(#paint1_linear)" stroke-opacity="0.08" stroke-width="2"/>
<path d="M44.6242 107.5H-53.5508V225.75H44.6242V107.5Z" stroke="url(#paint2_linear)" stroke-opacity="0.08" stroke-width="2"/>
<path d="M35.7 118.25H-44.625V215H35.7V118.25Z" stroke="url(#paint3_linear)" stroke-opacity="0.08" stroke-width="2"/>
<path d="M26.7748 129H-35.7002V204.25H26.7748V129Z" stroke="url(#paint4_linear)" stroke-opacity="0.08" stroke-width="2"/>
<path d="M17.8496 139.75H-26.7754V193.5H17.8496V139.75Z" stroke="url(#paint5_linear)" stroke-opacity="0.08" stroke-width="2"/>
<path d="M8.92442 150.5H-17.8506V182.75H8.92442V150.5Z" stroke="url(#paint6_linear)" stroke-opacity="0.08" stroke-width="2"/>
<path d="M-0.000781059 161.25H-8.92578V172H-0.000781059V161.25Z" stroke="url(#paint7_linear)" stroke-opacity="0.08" stroke-width="2"/>
<path d="M62.475 0H0V75.25H62.475V0Z" stroke="url(#paint8_linear)" stroke-opacity="0.08" stroke-width="2"/>
<path d="M53.5498 10.75H8.9248V64.5H53.5498V10.75Z" stroke="url(#paint9_linear)" stroke-opacity="0.08" stroke-width="2"/>
<path d="M44.6246 21.5H17.8496V53.75H44.6246V21.5Z" stroke="url(#paint10_linear)" stroke-opacity="0.08" stroke-width="2"/>
<path d="M35.6994 32.25H26.7744V43H35.6994V32.25Z" stroke="url(#paint11_linear)" stroke-opacity="0.08" stroke-width="2"/>
<path d="M205.274 0H71.3994V161.25H205.274V0Z" stroke="url(#paint12_linear)" stroke-opacity="0.08" stroke-width="2"/>
<path d="M196.349 10.75H80.3242V150.5H196.349V10.75Z" stroke="url(#paint13_linear)" stroke-opacity="0.08" stroke-width="2"/>
<path d="M187.425 21.5H89.25V139.75H187.425V21.5Z" stroke="url(#paint14_linear)" stroke-opacity="0.08" stroke-width="2"/>
<path d="M178.5 32.25H98.1748V129H178.5V32.25Z" stroke="url(#paint15_linear)" stroke-opacity="0.08" stroke-width="2"/>
<path d="M169.575 43H107.1V118.25H169.575V43Z" stroke="url(#paint16_linear)" stroke-opacity="0.08" stroke-width="2"/>
<path d="M160.649 53.75H116.024V107.5H160.649V53.75Z" stroke="url(#paint17_linear)" stroke-opacity="0.08" stroke-width="2"/>
<path d="M151.724 64.5H124.949V96.75H151.724V64.5Z" stroke="url(#paint18_linear)" stroke-opacity="0.08" stroke-width="2"/>
<path d="M142.8 75.25H133.875V86H142.8V75.25Z" stroke="url(#paint19_linear)" stroke-opacity="0.08" stroke-width="2"/>
<path d="M133.874 172H71.3994V247.25H133.874V172Z" stroke="url(#paint20_linear)" stroke-opacity="0.08" stroke-width="2"/>
<path d="M124.949 182.75H80.3242V236.5H124.949V182.75Z" stroke="url(#paint21_linear)" stroke-opacity="0.08" stroke-width="2"/>
<path d="M116.025 193.5H89.25V225.75H116.025V193.5Z" stroke="url(#paint22_linear)" stroke-opacity="0.08" stroke-width="2"/>
<path d="M107.1 204.25H98.1748V215H107.1V204.25Z" stroke="url(#paint23_linear)" stroke-opacity="0.08" stroke-width="2"/>
<path d="M348.074 -86H214.199V75.25H348.074V-86Z" stroke="url(#paint24_linear)" stroke-opacity="0.08" stroke-width="2"/>
<path d="M339.15 -75.25H223.125V64.5H339.15V-75.25Z" stroke="url(#paint25_linear)" stroke-opacity="0.08" stroke-width="2"/>
<path d="M330.225 -64.5H232.05V53.75H330.225V-64.5Z" stroke="url(#paint26_linear)" stroke-opacity="0.08" stroke-width="2"/>
<path d="M321.3 -53.75H240.975V43H321.3V-53.75Z" stroke="url(#paint27_linear)" stroke-opacity="0.08" stroke-width="2"/>
<path d="M312.374 -43H249.899V32.25H312.374V-43Z" stroke="url(#paint28_linear)" stroke-opacity="0.08" stroke-width="2"/>
<path d="M303.449 -32.25H258.824V21.5H303.449V-32.25Z" stroke="url(#paint29_linear)" stroke-opacity="0.08" stroke-width="2"/>
<path d="M294.525 -21.5H267.75V10.75H294.525V-21.5Z" stroke="url(#paint30_linear)" stroke-opacity="0.08" stroke-width="2"/>
<path d="M285.6 -10.75H276.675V0H285.6V-10.75Z" stroke="url(#paint31_linear)" stroke-opacity="0.08" stroke-width="2"/>
<path d="M276.674 86H214.199V161.25H276.674V86Z" stroke="url(#paint32_linear)" stroke-opacity="0.08" stroke-width="2"/>
<path d="M267.75 96.75H223.125V150.5H267.75V96.75Z" stroke="url(#paint33_linear)" stroke-opacity="0.08" stroke-width="2"/>
<path d="M258.825 107.5H232.05V139.75H258.825V107.5Z" stroke="url(#paint34_linear)" stroke-opacity="0.08" stroke-width="2"/>
<path d="M249.9 118.25H240.975V129H249.9V118.25Z" stroke="url(#paint35_linear)" stroke-opacity="0.08" stroke-width="2"/>
<path d="M133.875 258H0V419.25H133.875V258Z" stroke="url(#paint36_linear)" stroke-opacity="0.08" stroke-width="2"/>
<path d="M124.95 268.75H8.9248V408.5H124.95V268.75Z" stroke="url(#paint37_linear)" stroke-opacity="0.08" stroke-width="2"/>
<path d="M116.025 279.5H17.8496V397.75H116.025V279.5Z" stroke="url(#paint38_linear)" stroke-opacity="0.08" stroke-width="2"/>
<path d="M107.099 290.25H26.7744V387H107.099V290.25Z" stroke="url(#paint39_linear)" stroke-opacity="0.08" stroke-width="2"/>
<path d="M98.1742 301H35.6992V376.25H98.1742V301Z" stroke="url(#paint40_linear)" stroke-opacity="0.08" stroke-width="2"/>
<path d="M89.25 311.75H44.625V365.5H89.25V311.75Z" stroke="url(#paint41_linear)" stroke-opacity="0.08" stroke-width="2"/>
<path d="M80.3248 322.5H53.5498V354.75H80.3248V322.5Z" stroke="url(#paint42_linear)" stroke-opacity="0.08" stroke-width="2"/>
<path d="M71.3996 333.25H62.4746V344H71.3996V333.25Z" stroke="url(#paint43_linear)" stroke-opacity="0.08" stroke-width="2"/>
<path d="M490.875 258H357V419.25H490.875V258Z" stroke="url(#paint44_linear)" stroke-opacity="0.08" stroke-width="2"/>
<path d="M205.274 430H71.3994V591.25H205.274V430Z" stroke="url(#paint45_linear)" stroke-opacity="0.08" stroke-width="2"/>
<path d="M276.675 172H142.8V333.25H276.675V172Z" stroke="url(#paint46_linear)" stroke-opacity="0.08" stroke-width="2"/>
<path d="M267.75 182.75H151.725V322.5H267.75V182.75Z" stroke="url(#paint47_linear)" stroke-opacity="0.08" stroke-width="2"/>
<path d="M258.824 193.5H160.649V311.75H258.824V193.5Z" stroke="url(#paint48_linear)" stroke-opacity="0.08" stroke-width="2"/>
<path d="M249.899 204.25H169.574V301H249.899V204.25Z" stroke="url(#paint49_linear)" stroke-opacity="0.08" stroke-width="2"/>
<path d="M240.975 215H178.5V290.25H240.975V215Z" stroke="url(#paint50_linear)" stroke-opacity="0.08" stroke-width="2"/>
<path d="M232.05 225.75H187.425V279.5H232.05V225.75Z" stroke="url(#paint51_linear)" stroke-opacity="0.08" stroke-width="2"/>
<path d="M223.125 236.5H196.35V268.75H223.125V236.5Z" stroke="url(#paint52_linear)" stroke-opacity="0.08" stroke-width="2"/>
<path d="M214.199 247.25H205.274V258H214.199V247.25Z" stroke="url(#paint53_linear)" stroke-opacity="0.08" stroke-width="2"/>
<path d="M205.275 344H142.8V419.25H205.275V344Z" stroke="url(#paint54_linear)" stroke-opacity="0.08" stroke-width="2"/>
<path d="M196.35 354.75H151.725V408.5H196.35V354.75Z" stroke="url(#paint55_linear)" stroke-opacity="0.08" stroke-width="2"/>
<path d="M187.424 365.5H160.649V397.75H187.424V365.5Z" stroke="url(#paint56_linear)" stroke-opacity="0.08" stroke-width="2"/>
<path d="M178.499 376.25H169.574V387H178.499V376.25Z" stroke="url(#paint57_linear)" stroke-opacity="0.08" stroke-width="2"/>
<path d="M348.074 344H214.199V505.25H348.074V344Z" stroke="url(#paint58_linear)" stroke-opacity="0.08" stroke-width="2"/>
<path d="M339.15 354.75H223.125V494.5H339.15V354.75Z" stroke="url(#paint59_linear)" stroke-opacity="0.08" stroke-width="2"/>
<path d="M330.225 365.5H232.05V483.75H330.225V365.5Z" stroke="url(#paint60_linear)" stroke-opacity="0.08" stroke-width="2"/>
<path d="M321.3 376.25H240.975V473H321.3V376.25Z" stroke="url(#paint61_linear)" stroke-opacity="0.08" stroke-width="2"/>
<path d="M312.374 387H249.899V462.25H312.374V387Z" stroke="url(#paint62_linear)" stroke-opacity="0.08" stroke-width="2"/>
<path d="M303.449 397.75H258.824V451.5H303.449V397.75Z" stroke="url(#paint63_linear)" stroke-opacity="0.08" stroke-width="2"/>
<path d="M294.525 408.5H267.75V440.75H294.525V408.5Z" stroke="url(#paint64_linear)" stroke-opacity="0.08" stroke-width="2"/>
<path d="M285.6 419.25H276.675V430H285.6V419.25Z" stroke="url(#paint65_linear)" stroke-opacity="0.08" stroke-width="2"/>
<path d="M419.475 86H285.6V247.25H419.475V86Z" stroke="url(#paint66_linear)" stroke-opacity="0.08" stroke-width="2"/>
<path d="M410.549 96.75H294.524V236.5H410.549V96.75Z" stroke="url(#paint67_linear)" stroke-opacity="0.08" stroke-width="2"/>
<path d="M401.624 107.5H303.449V225.75H401.624V107.5Z" stroke="url(#paint68_linear)" stroke-opacity="0.08" stroke-width="2"/>
<path d="M392.7 118.25H312.375V215H392.7V118.25Z" stroke="url(#paint69_linear)" stroke-opacity="0.08" stroke-width="2"/>
<path d="M383.775 129H321.3V204.25H383.775V129Z" stroke="url(#paint70_linear)" stroke-opacity="0.08" stroke-width="2"/>
<path d="M374.85 139.75H330.225V193.5H374.85V139.75Z" stroke="url(#paint71_linear)" stroke-opacity="0.08" stroke-width="2"/>
<path d="M365.924 150.5H339.149V182.75H365.924V150.5Z" stroke="url(#paint72_linear)" stroke-opacity="0.08" stroke-width="2"/>
<path d="M356.999 161.25H348.074V172H356.999V161.25Z" stroke="url(#paint73_linear)" stroke-opacity="0.08" stroke-width="2"/>
<path d="M348.075 258H285.6V333.25H348.075V258Z" stroke="url(#paint74_linear)" stroke-opacity="0.08" stroke-width="2"/>
<path d="M339.149 268.75H294.524V322.5H339.149V268.75Z" stroke="url(#paint75_linear)" stroke-opacity="0.08" stroke-width="2"/>
<path d="M330.224 279.5H303.449V311.75H330.224V279.5Z" stroke="url(#paint76_linear)" stroke-opacity="0.08" stroke-width="2"/>
<path d="M321.3 290.25H312.375V301H321.3V290.25Z" stroke="url(#paint77_linear)" stroke-opacity="0.08" stroke-width="2"/>
<path d="M419.475 430H357V505.25H419.475V430Z" stroke="url(#paint78_linear)" stroke-opacity="0.08" stroke-width="2"/>
<path d="M419.475 0H357V75.25H419.475V0Z" stroke="url(#paint79_linear)" stroke-opacity="0.08" stroke-width="2"/>
<path d="M62.475 430H0V505.25H62.475V430Z" stroke="url(#paint80_linear)" stroke-opacity="0.08" stroke-width="2"/>
</g>
<g clip-path="url(#clip1)">
<path d="M357 430H0V860H357V430Z" fill="white"/>
<path d="M62.4746 516H-71.4004V677.25H62.4746V516Z" stroke="url(#paint81_linear)" stroke-opacity="0.08" stroke-width="2"/>
<path d="M53.5494 526.75H-62.4756V666.5H53.5494V526.75Z" stroke="url(#paint82_linear)" stroke-opacity="0.08" stroke-width="2"/>
<path d="M44.6242 537.5H-53.5508V655.75H44.6242V537.5Z" stroke="url(#paint83_linear)" stroke-opacity="0.08" stroke-width="2"/>
<path d="M35.7 548.25H-44.625V645H35.7V548.25Z" stroke="url(#paint84_linear)" stroke-opacity="0.08" stroke-width="2"/>
<path d="M26.7748 559H-35.7002V634.25H26.7748V559Z" stroke="url(#paint85_linear)" stroke-opacity="0.08" stroke-width="2"/>
<path d="M17.8496 569.75H-26.7754V623.5H17.8496V569.75Z" stroke="url(#paint86_linear)" stroke-opacity="0.08" stroke-width="2"/>
<path d="M8.92442 580.5H-17.8506V612.75H8.92442V580.5Z" stroke="url(#paint87_linear)" stroke-opacity="0.08" stroke-width="2"/>
<path d="M-0.000781059 591.25H-8.92578V602H-0.000781059V591.25Z" stroke="url(#paint88_linear)" stroke-opacity="0.08" stroke-width="2"/>
<path d="M62.475 430H0V505.25H62.475V430Z" stroke="url(#paint89_linear)" stroke-opacity="0.08" stroke-width="2"/>
<path d="M53.5498 440.75H8.9248V494.5H53.5498V440.75Z" stroke="url(#paint90_linear)" stroke-opacity="0.08" stroke-width="2"/>
<path d="M44.6246 451.5H17.8496V483.75H44.6246V451.5Z" stroke="url(#paint91_linear)" stroke-opacity="0.08" stroke-width="2"/>
<path d="M35.6994 462.25H26.7744V473H35.6994V462.25Z" stroke="url(#paint92_linear)" stroke-opacity="0.08" stroke-width="2"/>
<path d="M205.274 430H71.3994V591.25H205.274V430Z" stroke="url(#paint93_linear)" stroke-opacity="0.08" stroke-width="2"/>
<path d="M196.349 440.75H80.3242V580.5H196.349V440.75Z" stroke="url(#paint94_linear)" stroke-opacity="0.08" stroke-width="2"/>
<path d="M187.425 451.5H89.25V569.75H187.425V451.5Z" stroke="url(#paint95_linear)" stroke-opacity="0.08" stroke-width="2"/>
<path d="M178.5 462.25H98.1748V559H178.5V462.25Z" stroke="url(#paint96_linear)" stroke-opacity="0.08" stroke-width="2"/>
<path d="M169.575 473H107.1V548.25H169.575V473Z" stroke="url(#paint97_linear)" stroke-opacity="0.08" stroke-width="2"/>
<path d="M160.649 483.75H116.024V537.5H160.649V483.75Z" stroke="url(#paint98_linear)" stroke-opacity="0.08" stroke-width="2"/>
<path d="M151.724 494.5H124.949V526.75H151.724V494.5Z" stroke="url(#paint99_linear)" stroke-opacity="0.08" stroke-width="2"/>
<path d="M142.8 505.25H133.875V516H142.8V505.25Z" stroke="url(#paint100_linear)" stroke-opacity="0.08" stroke-width="2"/>
<path d="M133.874 602H71.3994V677.25H133.874V602Z" stroke="url(#paint101_linear)" stroke-opacity="0.08" stroke-width="2"/>
<path d="M124.949 612.75H80.3242V666.5H124.949V612.75Z" stroke="url(#paint102_linear)" stroke-opacity="0.08" stroke-width="2"/>
<path d="M116.025 623.5H89.25V655.75H116.025V623.5Z" stroke="url(#paint103_linear)" stroke-opacity="0.08" stroke-width="2"/>
<path d="M107.1 634.25H98.1748V645H107.1V634.25Z" stroke="url(#paint104_linear)" stroke-opacity="0.08" stroke-width="2"/>
<path d="M348.074 344H214.199V505.25H348.074V344Z" stroke="url(#paint105_linear)" stroke-opacity="0.08" stroke-width="2"/>
<path d="M339.15 354.75H223.125V494.5H339.15V354.75Z" stroke="url(#paint106_linear)" stroke-opacity="0.08" stroke-width="2"/>
<path d="M330.225 365.5H232.05V483.75H330.225V365.5Z" stroke="url(#paint107_linear)" stroke-opacity="0.08" stroke-width="2"/>
<path d="M321.3 376.25H240.975V473H321.3V376.25Z" stroke="url(#paint108_linear)" stroke-opacity="0.08" stroke-width="2"/>
<path d="M312.374 387H249.899V462.25H312.374V387Z" stroke="url(#paint109_linear)" stroke-opacity="0.08" stroke-width="2"/>
<path d="M303.449 397.75H258.824V451.5H303.449V397.75Z" stroke="url(#paint110_linear)" stroke-opacity="0.08" stroke-width="2"/>
<path d="M294.525 408.5H267.75V440.75H294.525V408.5Z" stroke="url(#paint111_linear)" stroke-opacity="0.08" stroke-width="2"/>
<path d="M285.6 419.25H276.675V430H285.6V419.25Z" stroke="url(#paint112_linear)" stroke-opacity="0.08" stroke-width="2"/>
<path d="M276.674 516H214.199V591.25H276.674V516Z" stroke="url(#paint113_linear)" stroke-opacity="0.08" stroke-width="2"/>
<path d="M267.75 526.75H223.125V580.5H267.75V526.75Z" stroke="url(#paint114_linear)" stroke-opacity="0.08" stroke-width="2"/>
<path d="M258.825 537.5H232.05V569.75H258.825V537.5Z" stroke="url(#paint115_linear)" stroke-opacity="0.08" stroke-width="2"/>
<path d="M249.9 548.25H240.975V559H249.9V548.25Z" stroke="url(#paint116_linear)" stroke-opacity="0.08" stroke-width="2"/>
<path d="M133.875 688H0V849.25H133.875V688Z" stroke="url(#paint117_linear)" stroke-opacity="0.08" stroke-width="2"/>
<path d="M124.95 698.75H8.9248V838.5H124.95V698.75Z" stroke="url(#paint118_linear)" stroke-opacity="0.08" stroke-width="2"/>
<path d="M116.025 709.5H17.8496V827.75H116.025V709.5Z" stroke="url(#paint119_linear)" stroke-opacity="0.08" stroke-width="2"/>
<path d="M107.099 720.25H26.7744V817H107.099V720.25Z" stroke="url(#paint120_linear)" stroke-opacity="0.08" stroke-width="2"/>
<path d="M98.1742 731H35.6992V806.25H98.1742V731Z" stroke="url(#paint121_linear)" stroke-opacity="0.08" stroke-width="2"/>
<path d="M89.25 741.75H44.625V795.5H89.25V741.75Z" stroke="url(#paint122_linear)" stroke-opacity="0.08" stroke-width="2"/>
<path d="M80.3248 752.5H53.5498V784.75H80.3248V752.5Z" stroke="url(#paint123_linear)" stroke-opacity="0.08" stroke-width="2"/>
<path d="M71.3996 763.25H62.4746V774H71.3996V763.25Z" stroke="url(#paint124_linear)" stroke-opacity="0.08" stroke-width="2"/>
<path d="M490.875 688H357V849.25H490.875V688Z" stroke="url(#paint125_linear)" stroke-opacity="0.08" stroke-width="2"/>
<path d="M205.274 860H71.3994V1021.25H205.274V860Z" stroke="url(#paint126_linear)" stroke-opacity="0.08" stroke-width="2"/>
<path d="M276.675 602H142.8V763.25H276.675V602Z" stroke="url(#paint127_linear)" stroke-opacity="0.08" stroke-width="2"/>
<path d="M267.75 612.75H151.725V752.5H267.75V612.75Z" stroke="url(#paint128_linear)" stroke-opacity="0.08" stroke-width="2"/>
<path d="M258.824 623.5H160.649V741.75H258.824V623.5Z" stroke="url(#paint129_linear)" stroke-opacity="0.08" stroke-width="2"/>
<path d="M249.899 634.25H169.574V731H249.899V634.25Z" stroke="url(#paint130_linear)" stroke-opacity="0.08" stroke-width="2"/>
<path d="M240.975 645H178.5V720.25H240.975V645Z" stroke="url(#paint131_linear)" stroke-opacity="0.08" stroke-width="2"/>
<path d="M232.05 655.75H187.425V709.5H232.05V655.75Z" stroke="url(#paint132_linear)" stroke-opacity="0.08" stroke-width="2"/>
<path d="M223.125 666.5H196.35V698.75H223.125V666.5Z" stroke="url(#paint133_linear)" stroke-opacity="0.08" stroke-width="2"/>
<path d="M214.199 677.25H205.274V688H214.199V677.25Z" stroke="url(#paint134_linear)" stroke-opacity="0.08" stroke-width="2"/>
<path d="M205.275 774H142.8V849.25H205.275V774Z" stroke="url(#paint135_linear)" stroke-opacity="0.08" stroke-width="2"/>
<path d="M196.35 784.75H151.725V838.5H196.35V784.75Z" stroke="url(#paint136_linear)" stroke-opacity="0.08" stroke-width="2"/>
<path d="M187.424 795.5H160.649V827.75H187.424V795.5Z" stroke="url(#paint137_linear)" stroke-opacity="0.08" stroke-width="2"/>
<path d="M178.499 806.25H169.574V817H178.499V806.25Z" stroke="url(#paint138_linear)" stroke-opacity="0.08" stroke-width="2"/>
<path d="M348.074 774H214.199V935.25H348.074V774Z" stroke="url(#paint139_linear)" stroke-opacity="0.08" stroke-width="2"/>
<path d="M339.15 784.75H223.125V924.5H339.15V784.75Z" stroke="url(#paint140_linear)" stroke-opacity="0.08" stroke-width="2"/>
<path d="M330.225 795.5H232.05V913.75H330.225V795.5Z" stroke="url(#paint141_linear)" stroke-opacity="0.08" stroke-width="2"/>
<path d="M321.3 806.25H240.975V903H321.3V806.25Z" stroke="url(#paint142_linear)" stroke-opacity="0.08" stroke-width="2"/>
<path d="M312.374 817H249.899V892.25H312.374V817Z" stroke="url(#paint143_linear)" stroke-opacity="0.08" stroke-width="2"/>
<path d="M303.449 827.75H258.824V881.5H303.449V827.75Z" stroke="url(#paint144_linear)" stroke-opacity="0.08" stroke-width="2"/>
<path d="M294.525 838.5H267.75V870.75H294.525V838.5Z" stroke="url(#paint145_linear)" stroke-opacity="0.08" stroke-width="2"/>
<path d="M285.6 849.25H276.675V860H285.6V849.25Z" stroke="url(#paint146_linear)" stroke-opacity="0.08" stroke-width="2"/>
<path d="M419.475 516H285.6V677.25H419.475V516Z" stroke="url(#paint147_linear)" stroke-opacity="0.08" stroke-width="2"/>
<path d="M410.549 526.75H294.524V666.5H410.549V526.75Z" stroke="url(#paint148_linear)" stroke-opacity="0.08" stroke-width="2"/>
<path d="M401.624 537.5H303.449V655.75H401.624V537.5Z" stroke="url(#paint149_linear)" stroke-opacity="0.08" stroke-width="2"/>
<path d="M392.7 548.25H312.375V645H392.7V548.25Z" stroke="url(#paint150_linear)" stroke-opacity="0.08" stroke-width="2"/>
<path d="M383.775 559H321.3V634.25H383.775V559Z" stroke="url(#paint151_linear)" stroke-opacity="0.08" stroke-width="2"/>
<path d="M374.85 569.75H330.225V623.5H374.85V569.75Z" stroke="url(#paint152_linear)" stroke-opacity="0.08" stroke-width="2"/>
<path d="M365.924 580.5H339.149V612.75H365.924V580.5Z" stroke="url(#paint153_linear)" stroke-opacity="0.08" stroke-width="2"/>
<path d="M356.999 591.25H348.074V602H356.999V591.25Z" stroke="url(#paint154_linear)" stroke-opacity="0.08" stroke-width="2"/>
<path d="M348.075 688H285.6V763.25H348.075V688Z" stroke="url(#paint155_linear)" stroke-opacity="0.08" stroke-width="2"/>
<path d="M339.149 698.75H294.524V752.5H339.149V698.75Z" stroke="url(#paint156_linear)" stroke-opacity="0.08" stroke-width="2"/>
<path d="M330.224 709.5H303.449V741.75H330.224V709.5Z" stroke="url(#paint157_linear)" stroke-opacity="0.08" stroke-width="2"/>
<path d="M321.3 720.25H312.375V731H321.3V720.25Z" stroke="url(#paint158_linear)" stroke-opacity="0.08" stroke-width="2"/>
<path d="M419.475 860H357V935.25H419.475V860Z" stroke="url(#paint159_linear)" stroke-opacity="0.08" stroke-width="2"/>
<path d="M419.475 430H357V505.25H419.475V430Z" stroke="url(#paint160_linear)" stroke-opacity="0.08" stroke-width="2"/>
<path d="M62.475 860H0V935.25H62.475V860Z" stroke="url(#paint161_linear)" stroke-opacity="0.08" stroke-width="2"/>
</g>
<defs>
<linearGradient id="paint0_linear" x1="-4.46289" y1="86" x2="-4.46289" y2="247.25" gradientUnits="userSpaceOnUse">
<stop/>
<stop offset="1" stop-opacity="0"/>
</linearGradient>
<linearGradient id="paint1_linear" x1="-4.46309" y1="96.75" x2="-4.46309" y2="236.5" gradientUnits="userSpaceOnUse">
<stop/>
<stop offset="1" stop-opacity="0"/>
</linearGradient>
<linearGradient id="paint2_linear" x1="-4.46328" y1="107.5" x2="-4.46328" y2="225.75" gradientUnits="userSpaceOnUse">
<stop/>
<stop offset="1" stop-opacity="0"/>
</linearGradient>
<linearGradient id="paint3_linear" x1="-4.4625" y1="118.25" x2="-4.4625" y2="215" gradientUnits="userSpaceOnUse">
<stop/>
<stop offset="1" stop-opacity="0"/>
</linearGradient>
<linearGradient id="paint4_linear" x1="-4.4627" y1="129" x2="-4.4627" y2="204.25" gradientUnits="userSpaceOnUse">
<stop/>
<stop offset="1" stop-opacity="0"/>
</linearGradient>
<linearGradient id="paint5_linear" x1="-4.46289" y1="139.75" x2="-4.46289" y2="193.5" gradientUnits="userSpaceOnUse">
<stop/>
<stop offset="1" stop-opacity="0"/>
</linearGradient>
<linearGradient id="paint6_linear" x1="-4.46309" y1="150.5" x2="-4.46309" y2="182.75" gradientUnits="userSpaceOnUse">
<stop/>
<stop offset="1" stop-opacity="0"/>
</linearGradient>
<linearGradient id="paint7_linear" x1="-4.46328" y1="161.25" x2="-4.46328" y2="172" gradientUnits="userSpaceOnUse">
<stop/>
<stop offset="1" stop-opacity="0"/>
</linearGradient>
<linearGradient id="paint8_linear" x1="31.2375" y1="0" x2="31.2375" y2="75.25" gradientUnits="userSpaceOnUse">
<stop/>
<stop offset="1" stop-opacity="0"/>
</linearGradient>
<linearGradient id="paint9_linear" x1="31.2373" y1="10.75" x2="31.2373" y2="64.5" gradientUnits="userSpaceOnUse">
<stop/>
<stop offset="1" stop-opacity="0"/>
</linearGradient>
<linearGradient id="paint10_linear" x1="31.2371" y1="21.5" x2="31.2371" y2="53.75" gradientUnits="userSpaceOnUse">
<stop/>
<stop offset="1" stop-opacity="0"/>
</linearGradient>
<linearGradient id="paint11_linear" x1="31.2369" y1="32.25" x2="31.2369" y2="43" gradientUnits="userSpaceOnUse">
<stop/>
<stop offset="1" stop-opacity="0"/>
</linearGradient>
<linearGradient id="paint12_linear" x1="138.337" y1="0" x2="138.337" y2="161.25" gradientUnits="userSpaceOnUse">
<stop/>
<stop offset="1" stop-opacity="0"/>
</linearGradient>
<linearGradient id="paint13_linear" x1="138.337" y1="10.75" x2="138.337" y2="150.5" gradientUnits="userSpaceOnUse">
<stop/>
<stop offset="1" stop-opacity="0"/>
</linearGradient>
<linearGradient id="paint14_linear" x1="138.338" y1="21.5" x2="138.338" y2="139.75" gradientUnits="userSpaceOnUse">
<stop/>
<stop offset="1" stop-opacity="0"/>
</linearGradient>
<linearGradient id="paint15_linear" x1="138.337" y1="32.25" x2="138.337" y2="129" gradientUnits="userSpaceOnUse">
<stop/>
<stop offset="1" stop-opacity="0"/>
</linearGradient>
<linearGradient id="paint16_linear" x1="138.337" y1="43" x2="138.337" y2="118.25" gradientUnits="userSpaceOnUse">
<stop/>
<stop offset="1" stop-opacity="0"/>
</linearGradient>
<linearGradient id="paint17_linear" x1="138.337" y1="53.75" x2="138.337" y2="107.5" gradientUnits="userSpaceOnUse">
<stop/>
<stop offset="1" stop-opacity="0"/>
</linearGradient>
<linearGradient id="paint18_linear" x1="138.337" y1="64.5" x2="138.337" y2="96.75" gradientUnits="userSpaceOnUse">
<stop/>
<stop offset="1" stop-opacity="0"/>
</linearGradient>
<linearGradient id="paint19_linear" x1="138.338" y1="75.25" x2="138.338" y2="86" gradientUnits="userSpaceOnUse">
<stop/>
<stop offset="1" stop-opacity="0"/>
</linearGradient>
<linearGradient id="paint20_linear" x1="102.637" y1="172" x2="102.637" y2="247.25" gradientUnits="userSpaceOnUse">
<stop/>
<stop offset="1" stop-opacity="0"/>
</linearGradient>
<linearGradient id="paint21_linear" x1="102.637" y1="182.75" x2="102.637" y2="236.5" gradientUnits="userSpaceOnUse">
<stop/>
<stop offset="1" stop-opacity="0"/>
</linearGradient>
<linearGradient id="paint22_linear" x1="102.637" y1="193.5" x2="102.637" y2="225.75" gradientUnits="userSpaceOnUse">
<stop/>
<stop offset="1" stop-opacity="0"/>
</linearGradient>
<linearGradient id="paint23_linear" x1="102.637" y1="204.25" x2="102.637" y2="215" gradientUnits="userSpaceOnUse">
<stop/>
<stop offset="1" stop-opacity="0"/>
</linearGradient>
<linearGradient id="paint24_linear" x1="281.137" y1="-86" x2="281.137" y2="75.25" gradientUnits="userSpaceOnUse">
<stop/>
<stop offset="1" stop-opacity="0"/>
</linearGradient>
<linearGradient id="paint25_linear" x1="281.137" y1="-75.25" x2="281.137" y2="64.5" gradientUnits="userSpaceOnUse">
<stop/>
<stop offset="1" stop-opacity="0"/>
</linearGradient>
<linearGradient id="paint26_linear" x1="281.137" y1="-64.5" x2="281.137" y2="53.75" gradientUnits="userSpaceOnUse">
<stop/>
<stop offset="1" stop-opacity="0"/>
</linearGradient>
<linearGradient id="paint27_linear" x1="281.137" y1="-53.75" x2="281.137" y2="43" gradientUnits="userSpaceOnUse">
<stop/>
<stop offset="1" stop-opacity="0"/>
</linearGradient>
<linearGradient id="paint28_linear" x1="281.137" y1="-43" x2="281.137" y2="32.25" gradientUnits="userSpaceOnUse">
<stop/>
<stop offset="1" stop-opacity="0"/>
</linearGradient>
<linearGradient id="paint29_linear" x1="281.137" y1="-32.25" x2="281.137" y2="21.5" gradientUnits="userSpaceOnUse">
<stop/>
<stop offset="1" stop-opacity="0"/>
</linearGradient>
<linearGradient id="paint30_linear" x1="281.137" y1="-21.5" x2="281.137" y2="10.75" gradientUnits="userSpaceOnUse">
<stop/>
<stop offset="1" stop-opacity="0"/>
</linearGradient>
<linearGradient id="paint31_linear" x1="281.137" y1="-10.75" x2="281.137" y2="0" gradientUnits="userSpaceOnUse">
<stop/>
<stop offset="1" stop-opacity="0"/>
</linearGradient>
<linearGradient id="paint32_linear" x1="245.437" y1="86" x2="245.437" y2="161.25" gradientUnits="userSpaceOnUse">
<stop/>
<stop offset="1" stop-opacity="0"/>
</linearGradient>
<linearGradient id="paint33_linear" x1="245.438" y1="96.75" x2="245.438" y2="150.5" gradientUnits="userSpaceOnUse">
<stop/>
<stop offset="1" stop-opacity="0"/>
</linearGradient>
<linearGradient id="paint34_linear" x1="245.437" y1="107.5" x2="245.437" y2="139.75" gradientUnits="userSpaceOnUse">
<stop/>
<stop offset="1" stop-opacity="0"/>
</linearGradient>
<linearGradient id="paint35_linear" x1="245.437" y1="118.25" x2="245.437" y2="129" gradientUnits="userSpaceOnUse">
<stop/>
<stop offset="1" stop-opacity="0"/>
</linearGradient>
<linearGradient id="paint36_linear" x1="66.9375" y1="258" x2="66.9375" y2="419.25" gradientUnits="userSpaceOnUse">
<stop/>
<stop offset="1" stop-opacity="0"/>
</linearGradient>
<linearGradient id="paint37_linear" x1="66.9373" y1="268.75" x2="66.9373" y2="408.5" gradientUnits="userSpaceOnUse">
<stop/>
<stop offset="1" stop-opacity="0"/>
</linearGradient>
<linearGradient id="paint38_linear" x1="66.9371" y1="279.5" x2="66.9371" y2="397.75" gradientUnits="userSpaceOnUse">
<stop/>
<stop offset="1" stop-opacity="0"/>
</linearGradient>
<linearGradient id="paint39_linear" x1="66.9369" y1="290.25" x2="66.9369" y2="387" gradientUnits="userSpaceOnUse">
<stop/>
<stop offset="1" stop-opacity="0"/>
</linearGradient>
<linearGradient id="paint40_linear" x1="66.9367" y1="301" x2="66.9367" y2="376.25" gradientUnits="userSpaceOnUse">
<stop/>
<stop offset="1" stop-opacity="0"/>
</linearGradient>
<linearGradient id="paint41_linear" x1="66.9375" y1="311.75" x2="66.9375" y2="365.5" gradientUnits="userSpaceOnUse">
<stop/>
<stop offset="1" stop-opacity="0"/>
</linearGradient>
<linearGradient id="paint42_linear" x1="66.9373" y1="322.5" x2="66.9373" y2="354.75" gradientUnits="userSpaceOnUse">
<stop/>
<stop offset="1" stop-opacity="0"/>
</linearGradient>
<linearGradient id="paint43_linear" x1="66.9371" y1="333.25" x2="66.9371" y2="344" gradientUnits="userSpaceOnUse">
<stop/>
<stop offset="1" stop-opacity="0"/>
</linearGradient>
<linearGradient id="paint44_linear" x1="423.938" y1="258" x2="423.938" y2="419.25" gradientUnits="userSpaceOnUse">
<stop/>
<stop offset="1" stop-opacity="0"/>
</linearGradient>
<linearGradient id="paint45_linear" x1="138.337" y1="430" x2="138.337" y2="591.25" gradientUnits="userSpaceOnUse">
<stop/>
<stop offset="1" stop-opacity="0"/>
</linearGradient>
<linearGradient id="paint46_linear" x1="209.737" y1="172" x2="209.737" y2="333.25" gradientUnits="userSpaceOnUse">
<stop/>
<stop offset="1" stop-opacity="0"/>
</linearGradient>
<linearGradient id="paint47_linear" x1="209.737" y1="182.75" x2="209.737" y2="322.5" gradientUnits="userSpaceOnUse">
<stop/>
<stop offset="1" stop-opacity="0"/>
</linearGradient>
<linearGradient id="paint48_linear" x1="209.737" y1="193.5" x2="209.737" y2="311.75" gradientUnits="userSpaceOnUse">
<stop/>
<stop offset="1" stop-opacity="0"/>
</linearGradient>
<linearGradient id="paint49_linear" x1="209.737" y1="204.25" x2="209.737" y2="301" gradientUnits="userSpaceOnUse">
<stop/>
<stop offset="1" stop-opacity="0"/>
</linearGradient>
<linearGradient id="paint50_linear" x1="209.738" y1="215" x2="209.738" y2="290.25" gradientUnits="userSpaceOnUse">
<stop/>
<stop offset="1" stop-opacity="0"/>
</linearGradient>
<linearGradient id="paint51_linear" x1="209.737" y1="225.75" x2="209.737" y2="279.5" gradientUnits="userSpaceOnUse">
<stop/>
<stop offset="1" stop-opacity="0"/>
</linearGradient>
<linearGradient id="paint52_linear" x1="209.737" y1="236.5" x2="209.737" y2="268.75" gradientUnits="userSpaceOnUse">
<stop/>
<stop offset="1" stop-opacity="0"/>
</linearGradient>
<linearGradient id="paint53_linear" x1="209.737" y1="247.25" x2="209.737" y2="258" gradientUnits="userSpaceOnUse">
<stop/>
<stop offset="1" stop-opacity="0"/>
</linearGradient>
<linearGradient id="paint54_linear" x1="174.037" y1="344" x2="174.037" y2="419.25" gradientUnits="userSpaceOnUse">
<stop/>
<stop offset="1" stop-opacity="0"/>
</linearGradient>
<linearGradient id="paint55_linear" x1="174.037" y1="354.75" x2="174.037" y2="408.5" gradientUnits="userSpaceOnUse">
<stop/>
<stop offset="1" stop-opacity="0"/>
</linearGradient>
<linearGradient id="paint56_linear" x1="174.037" y1="365.5" x2="174.037" y2="397.75" gradientUnits="userSpaceOnUse">
<stop/>
<stop offset="1" stop-opacity="0"/>
</linearGradient>
<linearGradient id="paint57_linear" x1="174.037" y1="376.25" x2="174.037" y2="387" gradientUnits="userSpaceOnUse">
<stop/>
<stop offset="1" stop-opacity="0"/>
</linearGradient>
<linearGradient id="paint58_linear" x1="281.137" y1="344" x2="281.137" y2="505.25" gradientUnits="userSpaceOnUse">
<stop/>
<stop offset="1" stop-opacity="0"/>
</linearGradient>
<linearGradient id="paint59_linear" x1="281.137" y1="354.75" x2="281.137" y2="494.5" gradientUnits="userSpaceOnUse">
<stop/>
<stop offset="1" stop-opacity="0"/>
</linearGradient>
<linearGradient id="paint60_linear" x1="281.137" y1="365.5" x2="281.137" y2="483.75" gradientUnits="userSpaceOnUse">
<stop/>
<stop offset="1" stop-opacity="0"/>
</linearGradient>
<linearGradient id="paint61_linear" x1="281.137" y1="376.25" x2="281.137" y2="473" gradientUnits="userSpaceOnUse">
<stop/>
<stop offset="1" stop-opacity="0"/>
</linearGradient>
<linearGradient id="paint62_linear" x1="281.137" y1="387" x2="281.137" y2="462.25" gradientUnits="userSpaceOnUse">
<stop/>
<stop offset="1" stop-opacity="0"/>
</linearGradient>
<linearGradient id="paint63_linear" x1="281.137" y1="397.75" x2="281.137" y2="451.5" gradientUnits="userSpaceOnUse">
<stop/>
<stop offset="1" stop-opacity="0"/>
</linearGradient>
<linearGradient id="paint64_linear" x1="281.137" y1="408.5" x2="281.137" y2="440.75" gradientUnits="userSpaceOnUse">
<stop/>
<stop offset="1" stop-opacity="0"/>
</linearGradient>
<linearGradient id="paint65_linear" x1="281.137" y1="419.25" x2="281.137" y2="430" gradientUnits="userSpaceOnUse">
<stop/>
<stop offset="1" stop-opacity="0"/>
</linearGradient>
<linearGradient id="paint66_linear" x1="352.537" y1="86" x2="352.537" y2="247.25" gradientUnits="userSpaceOnUse">
<stop/>
<stop offset="1" stop-opacity="0"/>
</linearGradient>
<linearGradient id="paint67_linear" x1="352.537" y1="96.75" x2="352.537" y2="236.5" gradientUnits="userSpaceOnUse">
<stop/>
<stop offset="1" stop-opacity="0"/>
</linearGradient>
<linearGradient id="paint68_linear" x1="352.537" y1="107.5" x2="352.537" y2="225.75" gradientUnits="userSpaceOnUse">
<stop/>
<stop offset="1" stop-opacity="0"/>
</linearGradient>
<linearGradient id="paint69_linear" x1="352.538" y1="118.25" x2="352.538" y2="215" gradientUnits="userSpaceOnUse">
<stop/>
<stop offset="1" stop-opacity="0"/>
</linearGradient>
<linearGradient id="paint70_linear" x1="352.537" y1="129" x2="352.537" y2="204.25" gradientUnits="userSpaceOnUse">
<stop/>
<stop offset="1" stop-opacity="0"/>
</linearGradient>
<linearGradient id="paint71_linear" x1="352.537" y1="139.75" x2="352.537" y2="193.5" gradientUnits="userSpaceOnUse">
<stop/>
<stop offset="1" stop-opacity="0"/>
</linearGradient>
<linearGradient id="paint72_linear" x1="352.537" y1="150.5" x2="352.537" y2="182.75" gradientUnits="userSpaceOnUse">
<stop/>
<stop offset="1" stop-opacity="0"/>
</linearGradient>
<linearGradient id="paint73_linear" x1="352.537" y1="161.25" x2="352.537" y2="172" gradientUnits="userSpaceOnUse">
<stop/>
<stop offset="1" stop-opacity="0"/>
</linearGradient>
<linearGradient id="paint74_linear" x1="316.837" y1="258" x2="316.837" y2="333.25" gradientUnits="userSpaceOnUse">
<stop/>
<stop offset="1" stop-opacity="0"/>
</linearGradient>
<linearGradient id="paint75_linear" x1="316.837" y1="268.75" x2="316.837" y2="322.5" gradientUnits="userSpaceOnUse">
<stop/>
<stop offset="1" stop-opacity="0"/>
</linearGradient>
<linearGradient id="paint76_linear" x1="316.837" y1="279.5" x2="316.837" y2="311.75" gradientUnits="userSpaceOnUse">
<stop/>
<stop offset="1" stop-opacity="0"/>
</linearGradient>
<linearGradient id="paint77_linear" x1="316.837" y1="290.25" x2="316.837" y2="301" gradientUnits="userSpaceOnUse">
<stop/>
<stop offset="1" stop-opacity="0"/>
</linearGradient>
<linearGradient id="paint78_linear" x1="388.238" y1="430" x2="388.238" y2="505.25" gradientUnits="userSpaceOnUse">
<stop/>
<stop offset="1" stop-opacity="0"/>
</linearGradient>
<linearGradient id="paint79_linear" x1="388.238" y1="0" x2="388.238" y2="75.25" gradientUnits="userSpaceOnUse">
<stop/>
<stop offset="1" stop-opacity="0"/>
</linearGradient>
<linearGradient id="paint80_linear" x1="31.2375" y1="430" x2="31.2375" y2="505.25" gradientUnits="userSpaceOnUse">
<stop/>
<stop offset="1" stop-opacity="0"/>
</linearGradient>
<linearGradient id="paint81_linear" x1="-4.46289" y1="516" x2="-4.46289" y2="677.25" gradientUnits="userSpaceOnUse">
<stop/>
<stop offset="1" stop-opacity="0"/>
</linearGradient>
<linearGradient id="paint82_linear" x1="-4.46309" y1="526.75" x2="-4.46309" y2="666.5" gradientUnits="userSpaceOnUse">
<stop/>
<stop offset="1" stop-opacity="0"/>
</linearGradient>
<linearGradient id="paint83_linear" x1="-4.46328" y1="537.5" x2="-4.46328" y2="655.75" gradientUnits="userSpaceOnUse">
<stop/>
<stop offset="1" stop-opacity="0"/>
</linearGradient>
<linearGradient id="paint84_linear" x1="-4.4625" y1="548.25" x2="-4.4625" y2="645" gradientUnits="userSpaceOnUse">
<stop/>
<stop offset="1" stop-opacity="0"/>
</linearGradient>
<linearGradient id="paint85_linear" x1="-4.4627" y1="559" x2="-4.4627" y2="634.25" gradientUnits="userSpaceOnUse">
<stop/>
<stop offset="1" stop-opacity="0"/>
</linearGradient>
<linearGradient id="paint86_linear" x1="-4.46289" y1="569.75" x2="-4.46289" y2="623.5" gradientUnits="userSpaceOnUse">
<stop/>
<stop offset="1" stop-opacity="0"/>
</linearGradient>
<linearGradient id="paint87_linear" x1="-4.46309" y1="580.5" x2="-4.46309" y2="612.75" gradientUnits="userSpaceOnUse">
<stop/>
<stop offset="1" stop-opacity="0"/>
</linearGradient>
<linearGradient id="paint88_linear" x1="-4.46328" y1="591.25" x2="-4.46328" y2="602" gradientUnits="userSpaceOnUse">
<stop/>
<stop offset="1" stop-opacity="0"/>
</linearGradient>
<linearGradient id="paint89_linear" x1="31.2375" y1="430" x2="31.2375" y2="505.25" gradientUnits="userSpaceOnUse">
<stop/>
<stop offset="1" stop-opacity="0"/>
</linearGradient>
<linearGradient id="paint90_linear" x1="31.2373" y1="440.75" x2="31.2373" y2="494.5" gradientUnits="userSpaceOnUse">
<stop/>
<stop offset="1" stop-opacity="0"/>
</linearGradient>
<linearGradient id="paint91_linear" x1="31.2371" y1="451.5" x2="31.2371" y2="483.75" gradientUnits="userSpaceOnUse">
<stop/>
<stop offset="1" stop-opacity="0"/>
</linearGradient>
<linearGradient id="paint92_linear" x1="31.2369" y1="462.25" x2="31.2369" y2="473" gradientUnits="userSpaceOnUse">
<stop/>
<stop offset="1" stop-opacity="0"/>
</linearGradient>
<linearGradient id="paint93_linear" x1="138.337" y1="430" x2="138.337" y2="591.25" gradientUnits="userSpaceOnUse">
<stop/>
<stop offset="1" stop-opacity="0"/>
</linearGradient>
<linearGradient id="paint94_linear" x1="138.337" y1="440.75" x2="138.337" y2="580.5" gradientUnits="userSpaceOnUse">
<stop/>
<stop offset="1" stop-opacity="0"/>
</linearGradient>
<linearGradient id="paint95_linear" x1="138.338" y1="451.5" x2="138.338" y2="569.75" gradientUnits="userSpaceOnUse">
<stop/>
<stop offset="1" stop-opacity="0"/>
</linearGradient>
<linearGradient id="paint96_linear" x1="138.337" y1="462.25" x2="138.337" y2="559" gradientUnits="userSpaceOnUse">
<stop/>
<stop offset="1" stop-opacity="0"/>
</linearGradient>
<linearGradient id="paint97_linear" x1="138.337" y1="473" x2="138.337" y2="548.25" gradientUnits="userSpaceOnUse">
<stop/>
<stop offset="1" stop-opacity="0"/>
</linearGradient>
<linearGradient id="paint98_linear" x1="138.337" y1="483.75" x2="138.337" y2="537.5" gradientUnits="userSpaceOnUse">
<stop/>
<stop offset="1" stop-opacity="0"/>
</linearGradient>
<linearGradient id="paint99_linear" x1="138.337" y1="494.5" x2="138.337" y2="526.75" gradientUnits="userSpaceOnUse">
<stop/>
<stop offset="1" stop-opacity="0"/>
</linearGradient>
<linearGradient id="paint100_linear" x1="138.338" y1="505.25" x2="138.338" y2="516" gradientUnits="userSpaceOnUse">
<stop/>
<stop offset="1" stop-opacity="0"/>
</linearGradient>
<linearGradient id="paint101_linear" x1="102.637" y1="602" x2="102.637" y2="677.25" gradientUnits="userSpaceOnUse">
<stop/>
<stop offset="1" stop-opacity="0"/>
</linearGradient>
<linearGradient id="paint102_linear" x1="102.637" y1="612.75" x2="102.637" y2="666.5" gradientUnits="userSpaceOnUse">
<stop/>
<stop offset="1" stop-opacity="0"/>
</linearGradient>
<linearGradient id="paint103_linear" x1="102.637" y1="623.5" x2="102.637" y2="655.75" gradientUnits="userSpaceOnUse">
<stop/>
<stop offset="1" stop-opacity="0"/>
</linearGradient>
<linearGradient id="paint104_linear" x1="102.637" y1="634.25" x2="102.637" y2="645" gradientUnits="userSpaceOnUse">
<stop/>
<stop offset="1" stop-opacity="0"/>
</linearGradient>
<linearGradient id="paint105_linear" x1="281.137" y1="344" x2="281.137" y2="505.25" gradientUnits="userSpaceOnUse">
<stop/>
<stop offset="1" stop-opacity="0"/>
</linearGradient>
<linearGradient id="paint106_linear" x1="281.137" y1="354.75" x2="281.137" y2="494.5" gradientUnits="userSpaceOnUse">
<stop/>
<stop offset="1" stop-opacity="0"/>
</linearGradient>
<linearGradient id="paint107_linear" x1="281.137" y1="365.5" x2="281.137" y2="483.75" gradientUnits="userSpaceOnUse">
<stop/>
<stop offset="1" stop-opacity="0"/>
</linearGradient>
<linearGradient id="paint108_linear" x1="281.137" y1="376.25" x2="281.137" y2="473" gradientUnits="userSpaceOnUse">
<stop/>
<stop offset="1" stop-opacity="0"/>
</linearGradient>
<linearGradient id="paint109_linear" x1="281.137" y1="387" x2="281.137" y2="462.25" gradientUnits="userSpaceOnUse">
<stop/>
<stop offset="1" stop-opacity="0"/>
</linearGradient>
<linearGradient id="paint110_linear" x1="281.137" y1="397.75" x2="281.137" y2="451.5" gradientUnits="userSpaceOnUse">
<stop/>
<stop offset="1" stop-opacity="0"/>
</linearGradient>
<linearGradient id="paint111_linear" x1="281.137" y1="408.5" x2="281.137" y2="440.75" gradientUnits="userSpaceOnUse">
<stop/>
<stop offset="1" stop-opacity="0"/>
</linearGradient>
<linearGradient id="paint112_linear" x1="281.137" y1="419.25" x2="281.137" y2="430" gradientUnits="userSpaceOnUse">
<stop/>
<stop offset="1" stop-opacity="0"/>
</linearGradient>
<linearGradient id="paint113_linear" x1="245.437" y1="516" x2="245.437" y2="591.25" gradientUnits="userSpaceOnUse">
<stop/>
<stop offset="1" stop-opacity="0"/>
</linearGradient>
<linearGradient id="paint114_linear" x1="245.438" y1="526.75" x2="245.438" y2="580.5" gradientUnits="userSpaceOnUse">
<stop/>
<stop offset="1" stop-opacity="0"/>
</linearGradient>
<linearGradient id="paint115_linear" x1="245.437" y1="537.5" x2="245.437" y2="569.75" gradientUnits="userSpaceOnUse">
<stop/>
<stop offset="1" stop-opacity="0"/>
</linearGradient>
<linearGradient id="paint116_linear" x1="245.437" y1="548.25" x2="245.437" y2="559" gradientUnits="userSpaceOnUse">
<stop/>
<stop offset="1" stop-opacity="0"/>
</linearGradient>
<linearGradient id="paint117_linear" x1="66.9375" y1="688" x2="66.9375" y2="849.25" gradientUnits="userSpaceOnUse">
<stop/>
<stop offset="1" stop-opacity="0"/>
</linearGradient>
<linearGradient id="paint118_linear" x1="66.9373" y1="698.75" x2="66.9373" y2="838.5" gradientUnits="userSpaceOnUse">
<stop/>
<stop offset="1" stop-opacity="0"/>
</linearGradient>
<linearGradient id="paint119_linear" x1="66.9371" y1="709.5" x2="66.9371" y2="827.75" gradientUnits="userSpaceOnUse">
<stop/>
<stop offset="1" stop-opacity="0"/>
</linearGradient>
<linearGradient id="paint120_linear" x1="66.9369" y1="720.25" x2="66.9369" y2="817" gradientUnits="userSpaceOnUse">
<stop/>
<stop offset="1" stop-opacity="0"/>
</linearGradient>
<linearGradient id="paint121_linear" x1="66.9367" y1="731" x2="66.9367" y2="806.25" gradientUnits="userSpaceOnUse">
<stop/>
<stop offset="1" stop-opacity="0"/>
</linearGradient>
<linearGradient id="paint122_linear" x1="66.9375" y1="741.75" x2="66.9375" y2="795.5" gradientUnits="userSpaceOnUse">
<stop/>
<stop offset="1" stop-opacity="0"/>
</linearGradient>
<linearGradient id="paint123_linear" x1="66.9373" y1="752.5" x2="66.9373" y2="784.75" gradientUnits="userSpaceOnUse">
<stop/>
<stop offset="1" stop-opacity="0"/>
</linearGradient>
<linearGradient id="paint124_linear" x1="66.9371" y1="763.25" x2="66.9371" y2="774" gradientUnits="userSpaceOnUse">
<stop/>
<stop offset="1" stop-opacity="0"/>
</linearGradient>
<linearGradient id="paint125_linear" x1="423.938" y1="688" x2="423.938" y2="849.25" gradientUnits="userSpaceOnUse">
<stop/>
<stop offset="1" stop-opacity="0"/>
</linearGradient>
<linearGradient id="paint126_linear" x1="138.337" y1="860" x2="138.337" y2="1021.25" gradientUnits="userSpaceOnUse">
<stop/>
<stop offset="1" stop-opacity="0"/>
</linearGradient>
<linearGradient id="paint127_linear" x1="209.737" y1="602" x2="209.737" y2="763.25" gradientUnits="userSpaceOnUse">
<stop/>
<stop offset="1" stop-opacity="0"/>
</linearGradient>
<linearGradient id="paint128_linear" x1="209.737" y1="612.75" x2="209.737" y2="752.5" gradientUnits="userSpaceOnUse">
<stop/>
<stop offset="1" stop-opacity="0"/>
</linearGradient>
<linearGradient id="paint129_linear" x1="209.737" y1="623.5" x2="209.737" y2="741.75" gradientUnits="userSpaceOnUse">
<stop/>
<stop offset="1" stop-opacity="0"/>
</linearGradient>
<linearGradient id="paint130_linear" x1="209.737" y1="634.25" x2="209.737" y2="731" gradientUnits="userSpaceOnUse">
<stop/>
<stop offset="1" stop-opacity="0"/>
</linearGradient>
<linearGradient id="paint131_linear" x1="209.738" y1="645" x2="209.738" y2="720.25" gradientUnits="userSpaceOnUse">
<stop/>
<stop offset="1" stop-opacity="0"/>
</linearGradient>
<linearGradient id="paint132_linear" x1="209.737" y1="655.75" x2="209.737" y2="709.5" gradientUnits="userSpaceOnUse">
<stop/>
<stop offset="1" stop-opacity="0"/>
</linearGradient>
<linearGradient id="paint133_linear" x1="209.737" y1="666.5" x2="209.737" y2="698.75" gradientUnits="userSpaceOnUse">
<stop/>
<stop offset="1" stop-opacity="0"/>
</linearGradient>
<linearGradient id="paint134_linear" x1="209.737" y1="677.25" x2="209.737" y2="688" gradientUnits="userSpaceOnUse">
<stop/>
<stop offset="1" stop-opacity="0"/>
</linearGradient>
<linearGradient id="paint135_linear" x1="174.037" y1="774" x2="174.037" y2="849.25" gradientUnits="userSpaceOnUse">
<stop/>
<stop offset="1" stop-opacity="0"/>
</linearGradient>
<linearGradient id="paint136_linear" x1="174.037" y1="784.75" x2="174.037" y2="838.5" gradientUnits="userSpaceOnUse">
<stop/>
<stop offset="1" stop-opacity="0"/>
</linearGradient>
<linearGradient id="paint137_linear" x1="174.037" y1="795.5" x2="174.037" y2="827.75" gradientUnits="userSpaceOnUse">
<stop/>
<stop offset="1" stop-opacity="0"/>
</linearGradient>
<linearGradient id="paint138_linear" x1="174.037" y1="806.25" x2="174.037" y2="817" gradientUnits="userSpaceOnUse">
<stop/>
<stop offset="1" stop-opacity="0"/>
</linearGradient>
<linearGradient id="paint139_linear" x1="281.137" y1="774" x2="281.137" y2="935.25" gradientUnits="userSpaceOnUse">
<stop/>
<stop offset="1" stop-opacity="0"/>
</linearGradient>
<linearGradient id="paint140_linear" x1="281.137" y1="784.75" x2="281.137" y2="924.5" gradientUnits="userSpaceOnUse">
<stop/>
<stop offset="1" stop-opacity="0"/>
</linearGradient>
<linearGradient id="paint141_linear" x1="281.137" y1="795.5" x2="281.137" y2="913.75" gradientUnits="userSpaceOnUse">
<stop/>
<stop offset="1" stop-opacity="0"/>
</linearGradient>
<linearGradient id="paint142_linear" x1="281.137" y1="806.25" x2="281.137" y2="903" gradientUnits="userSpaceOnUse">
<stop/>
<stop offset="1" stop-opacity="0"/>
</linearGradient>
<linearGradient id="paint143_linear" x1="281.137" y1="817" x2="281.137" y2="892.25" gradientUnits="userSpaceOnUse">
<stop/>
<stop offset="1" stop-opacity="0"/>
</linearGradient>
<linearGradient id="paint144_linear" x1="281.137" y1="827.75" x2="281.137" y2="881.5" gradientUnits="userSpaceOnUse">
<stop/>
<stop offset="1" stop-opacity="0"/>
</linearGradient>
<linearGradient id="paint145_linear" x1="281.137" y1="838.5" x2="281.137" y2="870.75" gradientUnits="userSpaceOnUse">
<stop/>
<stop offset="1" stop-opacity="0"/>
</linearGradient>
<linearGradient id="paint146_linear" x1="281.137" y1="849.25" x2="281.137" y2="860" gradientUnits="userSpaceOnUse">
<stop/>
<stop offset="1" stop-opacity="0"/>
</linearGradient>
<linearGradient id="paint147_linear" x1="352.537" y1="516" x2="352.537" y2="677.25" gradientUnits="userSpaceOnUse">
<stop/>
<stop offset="1" stop-opacity="0"/>
</linearGradient>
<linearGradient id="paint148_linear" x1="352.537" y1="526.75" x2="352.537" y2="666.5" gradientUnits="userSpaceOnUse">
<stop/>
<stop offset="1" stop-opacity="0"/>
</linearGradient>
<linearGradient id="paint149_linear" x1="352.537" y1="537.5" x2="352.537" y2="655.75" gradientUnits="userSpaceOnUse">
<stop/>
<stop offset="1" stop-opacity="0"/>
</linearGradient>
<linearGradient id="paint150_linear" x1="352.538" y1="548.25" x2="352.538" y2="645" gradientUnits="userSpaceOnUse">
<stop/>
<stop offset="1" stop-opacity="0"/>
</linearGradient>
<linearGradient id="paint151_linear" x1="352.537" y1="559" x2="352.537" y2="634.25" gradientUnits="userSpaceOnUse">
<stop/>
<stop offset="1" stop-opacity="0"/>
</linearGradient>
<linearGradient id="paint152_linear" x1="352.537" y1="569.75" x2="352.537" y2="623.5" gradientUnits="userSpaceOnUse">
<stop/>
<stop offset="1" stop-opacity="0"/>
</linearGradient>
<linearGradient id="paint153_linear" x1="352.537" y1="580.5" x2="352.537" y2="612.75" gradientUnits="userSpaceOnUse">
<stop/>
<stop offset="1" stop-opacity="0"/>
</linearGradient>
<linearGradient id="paint154_linear" x1="352.537" y1="591.25" x2="352.537" y2="602" gradientUnits="userSpaceOnUse">
<stop/>
<stop offset="1" stop-opacity="0"/>
</linearGradient>
<linearGradient id="paint155_linear" x1="316.837" y1="688" x2="316.837" y2="763.25" gradientUnits="userSpaceOnUse">
<stop/>
<stop offset="1" stop-opacity="0"/>
</linearGradient>
<linearGradient id="paint156_linear" x1="316.837" y1="698.75" x2="316.837" y2="752.5" gradientUnits="userSpaceOnUse">
<stop/>
<stop offset="1" stop-opacity="0"/>
</linearGradient>
<linearGradient id="paint157_linear" x1="316.837" y1="709.5" x2="316.837" y2="741.75" gradientUnits="userSpaceOnUse">
<stop/>
<stop offset="1" stop-opacity="0"/>
</linearGradient>
<linearGradient id="paint158_linear" x1="316.837" y1="720.25" x2="316.837" y2="731" gradientUnits="userSpaceOnUse">
<stop/>
<stop offset="1" stop-opacity="0"/>
</linearGradient>
<linearGradient id="paint159_linear" x1="388.238" y1="860" x2="388.238" y2="935.25" gradientUnits="userSpaceOnUse">
<stop/>
<stop offset="1" stop-opacity="0"/>
</linearGradient>
<linearGradient id="paint160_linear" x1="388.238" y1="430" x2="388.238" y2="505.25" gradientUnits="userSpaceOnUse">
<stop/>
<stop offset="1" stop-opacity="0"/>
</linearGradient>
<linearGradient id="paint161_linear" x1="31.2375" y1="860" x2="31.2375" y2="935.25" gradientUnits="userSpaceOnUse">
<stop/>
<stop offset="1" stop-opacity="0"/>
</linearGradient>
<clipPath id="clip0">
<rect width="357" height="430" fill="white"/>
</clipPath>
<clipPath id="clip1">
<rect width="357" height="430" fill="white" transform="translate(0 430)"/>
</clipPath>
</defs>
</svg>
