<svg width="45" height="45" viewBox="0 0 45 45" fill="none" xmlns="http://www.w3.org/2000/svg">
<path d="M44.224 37.2416H0.775897C0.347431 37.2416 0 36.8941 0 36.4657V8.53469C0 8.10622 0.347431 7.75879 0.775897 7.75879H44.2241C44.6526 7.75879 45 8.10622 45 8.53469V36.4657C44.9999 36.8942 44.6525 37.2416 44.224 37.2416Z" fill="#41479B"/>
<path d="M22.8152 11.1345L23.1263 12.0673L24.1095 12.0749C24.2369 12.0759 24.2896 12.2383 24.1872 12.314L23.3962 12.8981L23.6928 13.8356C23.7312 13.9568 23.593 14.0574 23.4894 13.9833L22.6895 13.4115L21.8896 13.9833C21.786 14.0573 21.6478 13.9569 21.6862 13.8356L21.9827 12.8981L21.1917 12.314C21.0893 12.2383 21.1421 12.0759 21.2694 12.0749L22.2527 12.0673L22.5638 11.1345C22.604 11.0138 22.7749 11.0138 22.8152 11.1345Z" fill="#FFE15A"/>
<path d="M22.8152 31.1614L23.1263 32.0942L24.1095 32.1018C24.2369 32.1028 24.2896 32.2652 24.1872 32.3409L23.3962 32.925L23.6928 33.8624C23.7312 33.9837 23.593 34.0843 23.4894 34.0102L22.6895 33.4383L21.8896 34.0102C21.786 34.0842 21.6478 33.9838 21.6862 33.8624L21.9827 32.925L21.1917 32.3409C21.0893 32.2652 21.1421 32.1028 21.2694 32.1018L22.2527 32.0942L22.5638 31.1614C22.604 31.0406 22.7749 31.0406 22.8152 31.1614Z" fill="#FFE15A"/>
<path d="M32.8279 21.1479L33.139 22.0807L34.1222 22.0884C34.2496 22.0893 34.3023 22.2518 34.1999 22.3274L33.4089 22.9116L33.7054 23.849C33.7438 23.9703 33.6057 24.0708 33.5021 23.9967L32.7022 23.4249L31.9023 23.9967C31.7987 24.0707 31.6605 23.9704 31.6989 23.849L31.9954 22.9116L31.2044 22.3274C31.102 22.2518 31.1548 22.0893 31.2821 22.0884L32.2654 22.0807L32.5765 21.1479C32.6167 21.0272 32.7876 21.0272 32.8279 21.1479Z" fill="#FFE15A"/>
<path d="M12.8015 21.1479L13.1126 22.0807L14.0958 22.0884C14.2232 22.0893 14.2759 22.2518 14.1735 22.3274L13.3825 22.9116L13.6791 23.849C13.7175 23.9703 13.5793 24.0708 13.4757 23.9967L12.6758 23.4249L11.8759 23.9967C11.7724 24.0707 11.6341 23.9704 11.6725 23.849L11.9691 22.9116L11.1781 22.3274C11.0757 22.2518 11.1284 22.0893 11.2558 22.0884L12.239 22.0807L12.5501 21.1479C12.5904 21.0272 12.7613 21.0272 12.8015 21.1479Z" fill="#FFE15A"/>
<path d="M14.3054 15.9187L14.6165 16.8515L15.5998 16.8591C15.7271 16.8601 15.7798 17.0225 15.6774 17.0982L14.8864 17.6823L15.183 18.6197C15.2214 18.741 15.0832 18.8416 14.9796 18.7675L14.1797 18.1957L13.3798 18.7675C13.2763 18.8415 13.138 18.7411 13.1764 18.6197L13.473 17.6823L12.682 17.0982C12.5796 17.0225 12.6323 16.8601 12.7597 16.8591L13.7429 16.8515L14.054 15.9187C14.0943 15.7979 14.265 15.7979 14.3054 15.9187Z" fill="#FFE15A"/>
<path d="M31.6482 25.9324L31.9593 26.8651L32.9425 26.8728C33.0699 26.8738 33.1226 27.0362 33.0202 27.1119L32.2292 27.696L32.5257 28.6334C32.5642 28.7547 32.426 28.8553 32.3224 28.7812L31.5225 28.2093L30.7226 28.7812C30.6191 28.8552 30.4808 28.7548 30.5192 28.6334L30.8157 27.696L30.0247 27.1119C29.9223 27.0362 29.9751 26.8738 30.1024 26.8728L31.0857 26.8651L31.3968 25.9324C31.437 25.8116 31.6079 25.8116 31.6482 25.9324Z" fill="#FFE15A"/>
<path d="M27.9831 12.2537L28.2943 13.1864L29.2775 13.1941C29.4048 13.1951 29.4576 13.3575 29.3552 13.4331L28.5642 14.0173L28.8607 14.9547C28.8991 15.076 28.761 15.1765 28.6573 15.1024L27.8574 14.5306L27.0575 15.1024C26.954 15.1765 26.8158 15.0761 26.8542 14.9547L27.1507 14.0173L26.3597 13.4331C26.2573 13.3575 26.31 13.1951 26.4374 13.1941L27.4206 13.1864L27.7318 12.2537C27.7719 12.1329 27.9427 12.1329 27.9831 12.2537Z" fill="#FFE15A"/>
<path d="M17.9704 29.5974L18.2816 30.5302L19.2648 30.5378C19.3921 30.5388 19.4449 30.7012 19.3425 30.7769L18.5515 31.361L18.848 32.2985C18.8864 32.4197 18.7483 32.5203 18.6446 32.4462L17.8447 31.8744L17.0449 32.4462C16.9413 32.5202 16.8031 32.4198 16.8415 32.2985L17.138 31.361L16.347 30.7769C16.2446 30.7012 16.2973 30.5388 16.4247 30.5378L17.4079 30.5302L17.7191 29.5974C17.7593 29.4766 17.9301 29.4766 17.9704 29.5974Z" fill="#FFE15A"/>
<path d="M31.3968 15.9187L31.0857 16.8515L30.1024 16.8591C29.9751 16.8601 29.9223 17.0225 30.0247 17.0982L30.8157 17.6823L30.5192 18.6197C30.4808 18.741 30.619 18.8416 30.7226 18.7675L31.5225 18.1957L32.3224 18.7675C32.4259 18.8415 32.5642 18.7411 32.5257 18.6197L32.2292 17.6823L33.0202 17.0982C33.1226 17.0225 33.0699 16.8601 32.9425 16.8591L31.9593 16.8515L31.6482 15.9187C31.6079 15.7979 31.437 15.7979 31.3968 15.9187Z" fill="#FFE15A"/>
<path d="M14.054 25.9324L13.7429 26.8651L12.7597 26.8728C12.6323 26.8738 12.5796 27.0362 12.682 27.1119L13.473 27.696L13.1764 28.6334C13.138 28.7547 13.2762 28.8553 13.3798 28.7812L14.1797 28.2093L14.9796 28.7812C15.0831 28.8552 15.2214 28.7548 15.183 28.6334L14.8864 27.696L15.6774 27.1119C15.7798 27.0362 15.7271 26.8738 15.5998 26.8728L14.6165 26.8651L14.3054 25.9324C14.265 25.8116 14.0943 25.8116 14.054 25.9324Z" fill="#FFE15A"/>
<path d="M17.7191 12.2537L17.4079 13.1864L16.4247 13.1941C16.2973 13.1951 16.2446 13.3575 16.347 13.4331L17.138 14.0173L16.8415 14.9547C16.8031 15.076 16.9412 15.1765 17.0449 15.1024L17.8447 14.5306L18.6446 15.1024C18.7482 15.1765 18.8864 15.0761 18.848 14.9547L18.5515 14.0173L19.3425 13.4331C19.4449 13.3575 19.3921 13.1951 19.2648 13.1941L18.2816 13.1864L17.9704 12.2537C17.9301 12.1329 17.7593 12.1329 17.7191 12.2537Z" fill="#FFE15A"/>
<path d="M27.7318 29.5974L27.4206 30.5302L26.4374 30.5378C26.31 30.5388 26.2573 30.7012 26.3597 30.7769L27.1507 31.361L26.8542 32.2985C26.8158 32.4197 26.9539 32.5203 27.0575 32.4462L27.8574 31.8744L28.6573 32.4462C28.7609 32.5202 28.8991 32.4198 28.8607 32.2985L28.5642 31.361L29.3552 30.7769C29.4576 30.7012 29.4048 30.5388 29.2775 30.5378L28.2943 30.5302L27.9831 29.5974C27.9428 29.4766 27.772 29.4766 27.7318 29.5974Z" fill="#FFE15A"/>
</svg>
