<svg width="45" height="45" viewBox="0 0 45 45" fill="none" xmlns="http://www.w3.org/2000/svg">
<g clip-path="url(#clip0)">
<path d="M44.2239 37.2415H0.775895C0.34743 37.2415 0 36.8941 0 36.4656V8.53468C0 8.10622 0.34743 7.75879 0.775895 7.75879H44.224C44.6525 7.75879 44.9999 8.10622 44.9999 8.53468V36.4656C44.9998 36.8941 44.6524 37.2415 44.2239 37.2415Z" fill="#41479B"/>
<path d="M44.9998 8.53468C44.9998 8.10622 44.6524 7.75879 44.2239 7.75879H40.7527L26.3791 17.176V7.75879H18.6205V17.176L4.24703 7.75879H0.775895C0.34743 7.75879 0 8.10622 0 8.53468V10.5413L12.3318 18.6208H0V26.3794H12.3318L0 34.459V36.4656C0 36.8941 0.34743 37.2415 0.775895 37.2415H4.24712L18.6207 27.8243V37.2415H26.3793V27.8243L40.7529 37.2415H44.2241C44.6526 37.2415 45 36.8941 45 36.4656V34.459L32.6682 26.3795H44.9998V18.6209H32.668L44.9998 10.5413V8.53468Z" fill="#F5F5F5"/>
<path d="M44.9998 20.1726H24.8275V7.75879H20.1723V20.1726H0V24.8277H20.1723V37.2415H24.8275V24.8277H44.9998V20.1726Z" fill="#FF4B55"/>
<path d="M15.7283 26.3794L0.0224609 36.5744C0.0773924 36.9491 0.386327 37.2415 0.776296 37.2415H1.84495L18.5784 26.3795H15.7283V26.3794Z" fill="#FF4B55"/>
<path d="M30.4439 26.3794H27.5938L44.3029 37.2254C44.6923 37.1839 44.9997 36.8659 44.9997 36.4655V35.8276L30.4439 26.3794Z" fill="#FF4B55"/>
<path d="M0 9.39118L14.2188 18.6209H17.0689L0.45202 7.83447C0.186591 7.95778 0 8.22277 0 8.53469V9.39118Z" fill="#FF4B55"/>
<path d="M29.23 18.6208L44.9735 8.40118C44.9081 8.0389 44.6058 7.75879 44.2246 7.75879H43.1131L26.3799 18.6208H29.23Z" fill="#FF4B55"/>
</g>
<defs>
<clipPath id="clip0">
<rect width="45" height="45" fill="white"/>
</clipPath>
</defs>
</svg>
