<svg width="45" height="45" viewBox="0 0 45 45" fill="none" xmlns="http://www.w3.org/2000/svg">
<path d="M44.224 37.2416H0.775897C0.347431 37.2416 0 36.8941 0 36.4657V8.53469C0 8.10622 0.347431 7.75879 0.775897 7.75879H44.2241C44.6526 7.75879 45 8.10622 45 8.53469V36.4657C44.9999 36.8942 44.6525 37.2416 44.224 37.2416Z" fill="#F5F5F5"/>
<path d="M44.9999 10.0268H0V8.53469C0 8.10622 0.347431 7.75879 0.775897 7.75879H44.2241C44.6526 7.75879 45 8.10622 45 8.53469L44.9999 10.0268Z" fill="#FF4B55"/>
<path d="M44.9999 16.8303H0V19.0982H44.9999V16.8303Z" fill="#FF4B55"/>
<path d="M44.9999 12.2944H0V14.5624H44.9999V12.2944Z" fill="#FF4B55"/>
<path d="M44.9999 23.6342H0.775897C0.347431 23.6342 0 23.2868 0 22.8583V21.3662H44.9999V23.6342Z" fill="#FF4B55"/>
<path d="M44.9999 30.4385H0V32.7064H44.9999V30.4385Z" fill="#FF4B55"/>
<path d="M44.224 37.2416H0.775897C0.347431 37.2416 0 36.8941 0 36.4657V34.9736H44.9999V36.4658C44.9999 36.8942 44.6525 37.2416 44.224 37.2416Z" fill="#FF4B55"/>
<path d="M44.9999 25.9023H0V28.1703H44.9999V25.9023Z" fill="#FF4B55"/>
<path d="M20.1724 7.75854H0.775897C0.347431 7.75854 0 8.10589 0 8.53435V22.8579C0 23.2863 0.347431 23.6338 0.775897 23.6338H20.1724C20.6009 23.6338 20.9483 23.2863 20.9483 22.8579V8.53435C20.9482 8.10589 20.6008 7.75854 20.1724 7.75854Z" fill="#41479B"/>
<path d="M2.178 9.53977L2.34974 10.0548L2.89263 10.0589C2.96295 10.0596 2.99204 10.1492 2.93552 10.1909L2.4988 10.5135L2.66262 11.0311C2.68389 11.0981 2.60752 11.1536 2.5503 11.1127L2.10865 10.797L1.667 11.1127C1.60979 11.1536 1.53359 11.0982 1.55468 11.0312L1.71851 10.5136L1.28178 10.191C1.22527 10.1492 1.25436 10.0596 1.32467 10.059L1.86757 10.0549L2.03931 9.53985C2.06145 9.47306 2.15567 9.47306 2.178 9.53977Z" fill="#F5F5F5"/>
<path d="M2.178 12.2338L2.34974 12.7488L2.89263 12.753C2.96295 12.7536 2.99204 12.8432 2.93552 12.885L2.4988 13.2075L2.66262 13.7251C2.68389 13.7921 2.60752 13.8476 2.5503 13.8067L2.10865 13.4911L1.667 13.8068C1.60979 13.8476 1.53359 13.7922 1.55468 13.7252L1.71851 13.2076L1.28178 12.8851C1.22527 12.8432 1.25436 12.7537 1.32467 12.753L1.86757 12.7489L2.03931 12.2339C2.06145 12.1672 2.15567 12.1672 2.178 12.2338Z" fill="#F5F5F5"/>
<path d="M2.178 14.9279L2.34974 15.4429L2.89263 15.4471C2.96295 15.4477 2.99204 15.5373 2.93552 15.5791L2.4988 15.9016L2.66262 16.4192C2.68389 16.4862 2.60752 16.5417 2.5503 16.5008L2.10865 16.1852L1.667 16.5009C1.60979 16.5417 1.53359 16.4863 1.55468 16.4193L1.71851 15.9017L1.28178 15.5792C1.22527 15.5373 1.25436 15.4478 1.32467 15.4471L1.86757 15.443L2.03931 14.928C2.06145 14.8613 2.15567 14.8613 2.178 14.9279Z" fill="#F5F5F5"/>
<path d="M2.178 17.6223L2.34974 18.1373L2.89263 18.1415C2.96295 18.1421 2.99204 18.2317 2.93552 18.2735L2.4988 18.596L2.66262 19.1136C2.68389 19.1806 2.60752 19.2361 2.5503 19.1952L2.10865 18.8796L1.667 19.1953C1.60979 19.2361 1.53359 19.1807 1.55468 19.1137L1.71851 18.5961L1.28178 18.2736C1.22527 18.2317 1.25436 18.1422 1.32467 18.1415L1.86757 18.1374L2.03931 17.6224C2.06145 17.5556 2.15567 17.5556 2.178 17.6223Z" fill="#F5F5F5"/>
<path d="M2.178 20.3164L2.34974 20.8315L2.89263 20.8356C2.96295 20.8362 2.99204 20.9259 2.93552 20.9676L2.4988 21.2902L2.66262 21.8078C2.68389 21.8748 2.60752 21.9303 2.5503 21.8893L2.10865 21.5737L1.667 21.8894C1.60979 21.9303 1.53359 21.8748 1.55468 21.8079L1.71851 21.2903L1.28178 20.9677C1.22527 20.9259 1.25436 20.8363 1.32467 20.8357L1.86757 20.8316L2.03931 20.3165C2.06145 20.2496 2.15567 20.2496 2.178 20.3164Z" fill="#F5F5F5"/>
<path d="M4.26882 10.8605L4.44056 11.3756L4.98345 11.3797C5.05377 11.3803 5.08286 11.4699 5.02634 11.5117L4.58962 11.8343L4.75345 12.3518C4.77471 12.4188 4.69834 12.4744 4.64112 12.4334L4.19947 12.1177L3.75782 12.4334C3.70061 12.4743 3.62441 12.4188 3.6455 12.3518L3.80933 11.8343L3.3726 11.5117C3.31609 11.4699 3.34518 11.3803 3.41549 11.3797L3.95839 11.3756L4.13013 10.8605C4.15219 10.7939 4.24658 10.7939 4.26882 10.8605Z" fill="#F5F5F5"/>
<path d="M4.26882 13.5547L4.44056 14.0697L4.98345 14.0738C5.05377 14.0744 5.08286 14.1641 5.02634 14.2058L4.58962 14.5284L4.75345 15.046C4.77471 15.113 4.69834 15.1685 4.64112 15.1275L4.19947 14.8118L3.75782 15.1275C3.70061 15.1684 3.62441 15.113 3.6455 15.046L3.80933 14.5284L3.3726 14.2058C3.31609 14.164 3.34518 14.0744 3.41549 14.0738L3.95839 14.0697L4.13013 13.5547C4.15219 13.488 4.24658 13.488 4.26882 13.5547Z" fill="#F5F5F5"/>
<path d="M4.26882 16.249L4.44056 16.764L4.98345 16.7682C5.05377 16.7688 5.08286 16.8584 5.02634 16.9002L4.58962 17.2227L4.75345 17.7403C4.77471 17.8073 4.69834 17.8628 4.64112 17.8219L4.19947 17.5062L3.75782 17.8219C3.70061 17.8628 3.62441 17.8073 3.6455 17.7403L3.80933 17.2227L3.3726 16.9002C3.31609 16.8584 3.34518 16.7688 3.41549 16.7682L3.95839 16.764L4.13013 16.249C4.15219 16.1823 4.24658 16.1823 4.26882 16.249Z" fill="#F5F5F5"/>
<path d="M4.26882 18.9433L4.44056 19.4583L4.98345 19.4624C5.05377 19.4631 5.08286 19.5527 5.02634 19.5945L4.58962 19.917L4.75345 20.4346C4.77471 20.5016 4.69834 20.5571 4.64112 20.5162L4.19947 20.2005L3.75782 20.5162C3.70061 20.557 3.62441 20.5016 3.6455 20.4346L3.80933 19.917L3.3726 19.5945C3.31609 19.5526 3.34518 19.4631 3.41549 19.4624L3.95839 19.4583L4.13013 18.9433C4.15219 18.8767 4.24658 18.8767 4.26882 18.9433Z" fill="#F5F5F5"/>
<path d="M6.36062 9.53953L6.53236 10.0546L7.07526 10.0587C7.14557 10.0593 7.17466 10.149 7.11815 10.1907L6.68142 10.5133L6.84525 11.0309C6.86652 11.0978 6.79014 11.1534 6.73292 11.1124L6.29127 10.7967L5.84962 11.1124C5.7924 11.1533 5.7162 11.0978 5.7373 11.0309L5.90113 10.5133L5.4644 10.1907C5.40788 10.1489 5.43697 10.0593 5.50729 10.0587L6.05019 10.0546L6.22193 9.53953C6.24408 9.47282 6.33838 9.47282 6.36062 9.53953Z" fill="#F5F5F5"/>
<path d="M6.36062 12.2338L6.53236 12.7488L7.07526 12.753C7.14557 12.7536 7.17466 12.8432 7.11815 12.885L6.68142 13.2075L6.84525 13.7251C6.86652 13.7921 6.79014 13.8476 6.73292 13.8067L6.29127 13.491L5.84962 13.8067C5.7924 13.8476 5.7162 13.7921 5.7373 13.7251L5.90113 13.2075L5.4644 12.885C5.40788 12.8431 5.43697 12.7536 5.50729 12.753L6.05019 12.7488L6.22193 12.2338C6.24408 12.1672 6.33838 12.1672 6.36062 12.2338Z" fill="#F5F5F5"/>
<path d="M6.36062 14.9279L6.53236 15.4429L7.07526 15.4471C7.14557 15.4477 7.17466 15.5373 7.11815 15.5791L6.68142 15.9016L6.84525 16.4192C6.86652 16.4862 6.79014 16.5418 6.73292 16.5008L6.29127 16.1851L5.84962 16.5008C5.7924 16.5417 5.7162 16.4862 5.7373 16.4192L5.90113 15.9016L5.4644 15.5791C5.40788 15.5372 5.43697 15.4477 5.50729 15.4471L6.05019 15.4429L6.22193 14.9279C6.24408 14.8613 6.33838 14.8613 6.36062 14.9279Z" fill="#F5F5F5"/>
<path d="M6.36062 17.6223L6.53236 18.1373L7.07526 18.1415C7.14557 18.1421 7.17466 18.2317 7.11815 18.2735L6.68142 18.596L6.84525 19.1136C6.86652 19.1806 6.79014 19.2361 6.73292 19.1952L6.29127 18.8795L5.84962 19.1952C5.7924 19.2361 5.7162 19.1806 5.7373 19.1136L5.90113 18.596L5.4644 18.2735C5.40788 18.2316 5.43697 18.1421 5.50729 18.1415L6.05019 18.1373L6.22193 17.6223C6.24408 17.5556 6.33838 17.5556 6.36062 17.6223Z" fill="#F5F5F5"/>
<path d="M6.36062 20.3165L6.53236 20.8315L7.07526 20.8356C7.14557 20.8362 7.17466 20.9259 7.11815 20.9676L6.68142 21.2902L6.84525 21.8078C6.86652 21.8748 6.79014 21.9303 6.73292 21.8893L6.29127 21.5736L5.84962 21.8893C5.7924 21.9302 5.7162 21.8748 5.7373 21.8078L5.90113 21.2902L5.4644 20.9676C5.40788 20.9258 5.43697 20.8362 5.50729 20.8356L6.05019 20.8315L6.22193 20.3165C6.24408 20.2497 6.33838 20.2497 6.36062 20.3165Z" fill="#F5F5F5"/>
<path d="M8.45144 10.8605L8.62317 11.3756L9.16607 11.3797C9.23639 11.3803 9.26548 11.4699 9.20897 11.5117L8.77224 11.8343L8.93606 12.3518C8.95733 12.4188 8.88096 12.4744 8.82374 12.4334L8.38209 12.1177L7.94044 12.4334C7.88322 12.4743 7.80702 12.4188 7.82812 12.3518L7.99195 11.8343L7.55522 11.5117C7.4987 11.4699 7.5278 11.3803 7.59811 11.3797L8.14101 11.3756L8.31275 10.8605C8.33481 10.7939 8.4292 10.7939 8.45144 10.8605Z" fill="#F5F5F5"/>
<path d="M8.45144 13.5547L8.62317 14.0697L9.16607 14.0738C9.23639 14.0744 9.26548 14.1641 9.20897 14.2058L8.77224 14.5284L8.93606 15.046C8.95733 15.113 8.88096 15.1685 8.82374 15.1275L8.38209 14.8118L7.94044 15.1275C7.88322 15.1684 7.80702 15.113 7.82812 15.046L7.99195 14.5284L7.55522 14.2058C7.4987 14.164 7.5278 14.0744 7.59811 14.0738L8.14101 14.0697L8.31275 13.5547C8.33481 13.488 8.4292 13.488 8.45144 13.5547Z" fill="#F5F5F5"/>
<path d="M8.45144 16.249L8.62317 16.764L9.16607 16.7682C9.23639 16.7688 9.26548 16.8584 9.20897 16.9002L8.77224 17.2227L8.93606 17.7403C8.95733 17.8073 8.88096 17.8628 8.82374 17.8219L8.38209 17.5062L7.94044 17.8219C7.88322 17.8628 7.80702 17.8073 7.82812 17.7403L7.99195 17.2227L7.55522 16.9002C7.4987 16.8584 7.5278 16.7688 7.59811 16.7682L8.14101 16.764L8.31275 16.249C8.33481 16.1823 8.4292 16.1823 8.45144 16.249Z" fill="#F5F5F5"/>
<path d="M8.45144 18.9433L8.62317 19.4583L9.16607 19.4624C9.23639 19.4631 9.26548 19.5527 9.20897 19.5945L8.77224 19.917L8.93606 20.4346C8.95733 20.5016 8.88096 20.5571 8.82374 20.5162L8.38209 20.2005L7.94044 20.5162C7.88322 20.557 7.80702 20.5016 7.82812 20.4346L7.99195 19.917L7.55522 19.5945C7.4987 19.5526 7.5278 19.4631 7.59811 19.4624L8.14101 19.4583L8.31275 18.9433C8.33481 18.8767 8.4292 18.8767 8.45144 18.9433Z" fill="#F5F5F5"/>
<path d="M10.5433 9.53953L10.7151 10.0546L11.258 10.0587C11.3283 10.0593 11.3574 10.149 11.3009 10.1907L10.8641 10.5133L11.028 11.0309C11.0492 11.0978 10.9728 11.1534 10.9156 11.1124L10.4739 10.7967L10.0322 11.1124C9.97502 11.1533 9.89882 11.0978 9.91991 11.0309L10.0837 10.5133L9.64701 10.1907C9.5905 10.1489 9.61959 10.0593 9.6899 10.0587L10.2328 10.0546L10.4045 9.53953C10.4268 9.47282 10.5211 9.47282 10.5433 9.53953Z" fill="#F5F5F5"/>
<path d="M10.5433 12.2338L10.7151 12.7488L11.258 12.753C11.3283 12.7536 11.3574 12.8432 11.3009 12.885L10.8641 13.2075L11.028 13.7251C11.0492 13.7921 10.9728 13.8476 10.9156 13.8067L10.4739 13.491L10.0322 13.8067C9.97502 13.8476 9.89882 13.7921 9.91991 13.7251L10.0837 13.2075L9.64701 12.885C9.5905 12.8431 9.61959 12.7536 9.6899 12.753L10.2328 12.7488L10.4045 12.2338C10.4268 12.1672 10.5211 12.1672 10.5433 12.2338Z" fill="#F5F5F5"/>
<path d="M10.5433 14.9279L10.7151 15.4429L11.258 15.4471C11.3283 15.4477 11.3574 15.5373 11.3009 15.5791L10.8641 15.9016L11.028 16.4192C11.0492 16.4862 10.9728 16.5418 10.9156 16.5008L10.4739 16.1851L10.0322 16.5008C9.97502 16.5417 9.89882 16.4862 9.91991 16.4192L10.0837 15.9016L9.64701 15.5791C9.5905 15.5372 9.61959 15.4477 9.6899 15.4471L10.2328 15.4429L10.4045 14.9279C10.4268 14.8613 10.5211 14.8613 10.5433 14.9279Z" fill="#F5F5F5"/>
<path d="M10.5433 17.6223L10.7151 18.1373L11.258 18.1415C11.3283 18.1421 11.3574 18.2317 11.3009 18.2735L10.8641 18.596L11.028 19.1136C11.0492 19.1806 10.9728 19.2361 10.9156 19.1952L10.4739 18.8795L10.0322 19.1952C9.97502 19.2361 9.89882 19.1806 9.91991 19.1136L10.0837 18.596L9.64701 18.2735C9.5905 18.2316 9.61959 18.1421 9.6899 18.1415L10.2328 18.1373L10.4045 17.6223C10.4268 17.5556 10.5211 17.5556 10.5433 17.6223Z" fill="#F5F5F5"/>
<path d="M10.5433 20.3165L10.7151 20.8315L11.258 20.8356C11.3283 20.8362 11.3574 20.9259 11.3009 20.9676L10.8641 21.2902L11.028 21.8078C11.0492 21.8748 10.9728 21.9303 10.9156 21.8893L10.4739 21.5736L10.0322 21.8893C9.97502 21.9302 9.89882 21.8748 9.91991 21.8078L10.0837 21.2902L9.64701 20.9676C9.5905 20.9258 9.61959 20.8362 9.6899 20.8356L10.2328 20.8315L10.4045 20.3165C10.4268 20.2497 10.5211 20.2497 10.5433 20.3165Z" fill="#F5F5F5"/>
<path d="M12.6341 10.8605L12.8058 11.3756L13.3487 11.3797C13.419 11.3803 13.4481 11.4699 13.3916 11.5117L12.9549 11.8343L13.1187 12.3518C13.14 12.4188 13.0636 12.4744 13.0064 12.4334L12.5647 12.1177L12.1231 12.4334C12.0658 12.4743 11.9896 12.4188 12.0107 12.3518L12.1746 11.8343L11.7378 11.5117C11.6813 11.4699 11.7104 11.3803 11.7807 11.3797L12.3236 11.3756L12.4954 10.8605C12.5176 10.7939 12.6118 10.7939 12.6341 10.8605Z" fill="#F5F5F5"/>
<path d="M12.6341 13.5547L12.8058 14.0697L13.3487 14.0738C13.419 14.0744 13.4481 14.1641 13.3916 14.2058L12.9549 14.5284L13.1187 15.046C13.14 15.113 13.0636 15.1685 13.0064 15.1275L12.5647 14.8118L12.1231 15.1275C12.0658 15.1684 11.9896 15.113 12.0107 15.046L12.1746 14.5284L11.7378 14.2058C11.6813 14.164 11.7104 14.0744 11.7807 14.0738L12.3236 14.0697L12.4954 13.5547C12.5176 13.488 12.6118 13.488 12.6341 13.5547Z" fill="#F5F5F5"/>
<path d="M12.6341 16.249L12.8058 16.764L13.3487 16.7682C13.419 16.7688 13.4481 16.8584 13.3916 16.9002L12.9549 17.2227L13.1187 17.7403C13.14 17.8073 13.0636 17.8628 13.0064 17.8219L12.5647 17.5062L12.1231 17.8219C12.0658 17.8628 11.9896 17.8073 12.0107 17.7403L12.1746 17.2227L11.7378 16.9002C11.6813 16.8584 11.7104 16.7688 11.7807 16.7682L12.3236 16.764L12.4954 16.249C12.5176 16.1823 12.6118 16.1823 12.6341 16.249Z" fill="#F5F5F5"/>
<path d="M12.6341 18.9433L12.8058 19.4583L13.3487 19.4624C13.419 19.4631 13.4481 19.5527 13.3916 19.5945L12.9549 19.917L13.1187 20.4346C13.14 20.5016 13.0636 20.5571 13.0064 20.5162L12.5647 20.2005L12.1231 20.5162C12.0658 20.557 11.9896 20.5016 12.0107 20.4346L12.1746 19.917L11.7378 19.5945C11.6813 19.5526 11.7104 19.4631 11.7807 19.4624L12.3236 19.4583L12.4954 18.9433C12.5176 18.8767 12.6118 18.8767 12.6341 18.9433Z" fill="#F5F5F5"/>
<path d="M14.7259 9.53953L14.8976 10.0546L15.4405 10.0587C15.5108 10.0593 15.5399 10.149 15.4834 10.1907L15.0467 10.5133L15.2105 11.0309C15.2318 11.0978 15.1554 11.1534 15.0982 11.1124L14.6565 10.7967L14.2149 11.1124C14.1576 11.1533 14.0814 11.0978 14.1025 11.0309L14.2664 10.5133L13.8296 10.1907C13.7731 10.1489 13.8022 10.0593 13.8725 10.0587L14.4154 10.0546L14.5872 9.53953C14.6092 9.47282 14.7036 9.47282 14.7259 9.53953Z" fill="#F5F5F5"/>
<path d="M14.7259 12.2338L14.8976 12.7488L15.4405 12.753C15.5108 12.7536 15.5399 12.8432 15.4834 12.885L15.0467 13.2075L15.2105 13.7251C15.2318 13.7921 15.1554 13.8476 15.0982 13.8067L14.6565 13.491L14.2149 13.8067C14.1576 13.8476 14.0814 13.7921 14.1025 13.7251L14.2664 13.2075L13.8296 12.885C13.7731 12.8431 13.8022 12.7536 13.8725 12.753L14.4154 12.7488L14.5872 12.2338C14.6092 12.1672 14.7036 12.1672 14.7259 12.2338Z" fill="#F5F5F5"/>
<path d="M14.7259 14.9279L14.8976 15.4429L15.4405 15.4471C15.5108 15.4477 15.5399 15.5373 15.4834 15.5791L15.0467 15.9016L15.2105 16.4192C15.2318 16.4862 15.1554 16.5418 15.0982 16.5008L14.6565 16.1851L14.2149 16.5008C14.1576 16.5417 14.0814 16.4862 14.1025 16.4192L14.2664 15.9016L13.8296 15.5791C13.7731 15.5372 13.8022 15.4477 13.8725 15.4471L14.4154 15.4429L14.5872 14.9279C14.6092 14.8613 14.7036 14.8613 14.7259 14.9279Z" fill="#F5F5F5"/>
<path d="M14.7259 17.6223L14.8976 18.1373L15.4405 18.1415C15.5108 18.1421 15.5399 18.2317 15.4834 18.2735L15.0467 18.596L15.2105 19.1136C15.2318 19.1806 15.1554 19.2361 15.0982 19.1952L14.6565 18.8795L14.2149 19.1952C14.1576 19.2361 14.0814 19.1806 14.1025 19.1136L14.2664 18.596L13.8296 18.2735C13.7731 18.2316 13.8022 18.1421 13.8725 18.1415L14.4154 18.1373L14.5872 17.6223C14.6092 17.5556 14.7036 17.5556 14.7259 17.6223Z" fill="#F5F5F5"/>
<path d="M14.7259 20.3165L14.8976 20.8315L15.4405 20.8356C15.5108 20.8362 15.5399 20.9259 15.4834 20.9676L15.0467 21.2902L15.2105 21.8078C15.2318 21.8748 15.1554 21.9303 15.0982 21.8893L14.6565 21.5736L14.2149 21.8893C14.1576 21.9302 14.0814 21.8748 14.1025 21.8078L14.2664 21.2902L13.8296 20.9676C13.7731 20.9258 13.8022 20.8362 13.8725 20.8356L14.4154 20.8315L14.5872 20.3165C14.6092 20.2497 14.7036 20.2497 14.7259 20.3165Z" fill="#F5F5F5"/>
<path d="M16.8167 10.8605L16.9884 11.3756L17.5313 11.3797C17.6016 11.3803 17.6307 11.4699 17.5742 11.5117L17.1375 11.8343L17.3013 12.3518C17.3226 12.4188 17.2462 12.4744 17.189 12.4334L16.7473 12.1177L16.3057 12.4334C16.2485 12.4743 16.1723 12.4188 16.1934 12.3518L16.3572 11.8343L15.9205 11.5117C15.8639 11.4699 15.893 11.3803 15.9633 11.3797L16.5062 11.3756L16.678 10.8605C16.7001 10.7939 16.7945 10.7939 16.8167 10.8605Z" fill="#F5F5F5"/>
<path d="M16.8167 13.5547L16.9884 14.0697L17.5313 14.0738C17.6016 14.0744 17.6307 14.1641 17.5742 14.2058L17.1375 14.5284L17.3013 15.046C17.3226 15.113 17.2462 15.1685 17.189 15.1275L16.7473 14.8118L16.3057 15.1275C16.2485 15.1684 16.1723 15.113 16.1934 15.046L16.3572 14.5284L15.9205 14.2058C15.8639 14.164 15.893 14.0744 15.9633 14.0738L16.5062 14.0697L16.678 13.5547C16.7001 13.488 16.7945 13.488 16.8167 13.5547Z" fill="#F5F5F5"/>
<path d="M16.8167 16.249L16.9884 16.764L17.5313 16.7682C17.6016 16.7688 17.6307 16.8584 17.5742 16.9002L17.1375 17.2227L17.3013 17.7403C17.3226 17.8073 17.2462 17.8628 17.189 17.8219L16.7473 17.5062L16.3057 17.8219C16.2485 17.8628 16.1723 17.8073 16.1934 17.7403L16.3572 17.2227L15.9205 16.9002C15.8639 16.8584 15.893 16.7688 15.9633 16.7682L16.5062 16.764L16.678 16.249C16.7001 16.1823 16.7945 16.1823 16.8167 16.249Z" fill="#F5F5F5"/>
<path d="M16.8167 18.9433L16.9884 19.4583L17.5313 19.4624C17.6016 19.4631 17.6307 19.5527 17.5742 19.5945L17.1375 19.917L17.3013 20.4346C17.3226 20.5016 17.2462 20.5571 17.189 20.5162L16.7473 20.2005L16.3057 20.5162C16.2485 20.557 16.1723 20.5016 16.1934 20.4346L16.3572 19.917L15.9205 19.5945C15.8639 19.5526 15.893 19.4631 15.9633 19.4624L16.5062 19.4583L16.678 18.9433C16.7001 18.8767 16.7945 18.8767 16.8167 18.9433Z" fill="#F5F5F5"/>
<path d="M18.9085 9.53953L19.0802 10.0546L19.6231 10.0587C19.6934 10.0593 19.7225 10.149 19.666 10.1907L19.2293 10.5133L19.3931 11.0309C19.4144 11.0978 19.338 11.1534 19.2808 11.1124L18.8391 10.7967L18.3975 11.1124C18.3403 11.1533 18.2641 11.0978 18.2851 11.0309L18.449 10.5133L18.0122 10.1907C17.9557 10.1489 17.9848 10.0593 18.0551 10.0587L18.598 10.0546L18.7698 9.53953C18.7919 9.47282 18.8861 9.47282 18.9085 9.53953Z" fill="#F5F5F5"/>
<path d="M18.9085 12.2338L19.0802 12.7488L19.6231 12.753C19.6934 12.7536 19.7225 12.8432 19.666 12.885L19.2293 13.2075L19.3931 13.7251C19.4144 13.7921 19.338 13.8476 19.2808 13.8067L18.8391 13.491L18.3975 13.8067C18.3403 13.8476 18.2641 13.7921 18.2851 13.7251L18.449 13.2075L18.0122 12.885C17.9557 12.8431 17.9848 12.7536 18.0551 12.753L18.598 12.7488L18.7698 12.2338C18.7919 12.1672 18.8861 12.1672 18.9085 12.2338Z" fill="#F5F5F5"/>
<path d="M18.9085 14.9279L19.0802 15.4429L19.6231 15.4471C19.6934 15.4477 19.7225 15.5373 19.666 15.5791L19.2293 15.9016L19.3931 16.4192C19.4144 16.4862 19.338 16.5418 19.2808 16.5008L18.8391 16.1851L18.3975 16.5008C18.3403 16.5417 18.2641 16.4862 18.2851 16.4192L18.449 15.9016L18.0122 15.5791C17.9557 15.5372 17.9848 15.4477 18.0551 15.4471L18.598 15.4429L18.7698 14.9279C18.7919 14.8613 18.8861 14.8613 18.9085 14.9279Z" fill="#F5F5F5"/>
<path d="M18.9085 17.6223L19.0802 18.1373L19.6231 18.1415C19.6934 18.1421 19.7225 18.2317 19.666 18.2735L19.2293 18.596L19.3931 19.1136C19.4144 19.1806 19.338 19.2361 19.2808 19.1952L18.8391 18.8795L18.3975 19.1952C18.3403 19.2361 18.2641 19.1806 18.2851 19.1136L18.449 18.596L18.0122 18.2735C17.9557 18.2316 17.9848 18.1421 18.0551 18.1415L18.598 18.1373L18.7698 17.6223C18.7919 17.5556 18.8861 17.5556 18.9085 17.6223Z" fill="#F5F5F5"/>
<path d="M18.9085 20.3165L19.0802 20.8315L19.6231 20.8356C19.6934 20.8362 19.7225 20.9259 19.666 20.9676L19.2293 21.2902L19.3931 21.8078C19.4144 21.8748 19.338 21.9303 19.2808 21.8893L18.8391 21.5736L18.3975 21.8893C18.3403 21.9302 18.2641 21.8748 18.2851 21.8078L18.449 21.2902L18.0122 20.9676C17.9557 20.9258 17.9848 20.8362 18.0551 20.8356L18.598 20.8315L18.7698 20.3165C18.7919 20.2497 18.8861 20.2497 18.9085 20.3165Z" fill="#F5F5F5"/>
</svg>
