<svg width="31" height="32" viewBox="0 0 31 32" fill="none" xmlns="http://www.w3.org/2000/svg">
<path d="M30.7341 10.9657C30.5829 10.8121 30.3716 10.7392 30.1615 10.7683H21.9554V7.01727C21.9554 3.31013 19.0503 0.304932 15.4668 0.304932C11.8832 0.304932 8.97817 3.31013 8.97817 7.01727V10.7683H0.771866C0.542834 10.7683 0.313874 10.7683 0.199321 10.9657C0.0454642 11.1187 -0.0259121 11.3401 0.00849754 11.558L2.87115 27.7466C3.27106 30.0049 5.15599 31.6574 7.37501 31.6951H23.5584C25.7837 31.6385 27.6647 29.973 28.0622 27.7072L30.9249 11.558C30.9593 11.3401 30.8879 11.1187 30.7341 10.9657ZM10.5048 7.01727C10.5048 4.18242 12.7263 1.88431 15.4667 1.88431C18.207 1.88431 20.4285 4.18242 20.4285 7.01727V10.7683H10.5048V7.01727ZM26.5355 27.5097C26.2784 29.0062 25.0275 30.1011 23.5584 30.1157H7.37501C5.90585 30.1011 4.65497 29.0063 4.39788 27.5097L1.68792 12.3477H29.2455L26.5355 27.5097Z" fill="black"/>
<path d="M21.1921 20.0471C21.6137 20.0471 21.9555 19.6935 21.9555 19.2574V16.8883C21.9555 16.4522 21.6137 16.0986 21.1921 16.0986C20.7705 16.0986 20.4287 16.4522 20.4287 16.8883V19.2574C20.4286 19.6935 20.7705 20.0471 21.1921 20.0471Z" fill="black"/>
<path d="M9.7414 20.0471C10.163 20.0471 10.5048 19.6935 10.5048 19.2574V16.8883C10.5048 16.4522 10.163 16.0986 9.7414 16.0986C9.31979 16.0986 8.97803 16.4522 8.97803 16.8883V19.2574C8.97803 19.6935 9.31979 20.0471 9.7414 20.0471Z" fill="black"/>
</svg>
