<svg width="30" height="30" viewBox="0 0 30 30" fill="none" xmlns="http://www.w3.org/2000/svg">
<g clip-path="url(#clip0)">
<path d="M15 17.3438C13.7057 17.3438 12.6562 16.2943 12.6562 15C12.6562 14.1325 13.1277 13.3759 13.8281 12.9705V5.85938C13.8281 5.2121 14.3527 4.6875 15 4.6875C15.6473 4.6875 16.1719 5.2121 16.1719 5.85938V12.9705C16.8722 13.3759 17.3437 14.1325 17.3437 15C17.3437 15.2099 17.3156 15.4131 17.2639 15.6068L20.3696 18.7125C20.8273 19.17 20.8273 19.912 20.3696 20.3696C20.1409 20.5984 19.8408 20.7129 19.541 20.7129C19.2409 20.7129 18.9411 20.5984 18.7125 20.3696L15.6068 17.2641C15.4131 17.3158 15.2099 17.3438 15 17.3438ZM25.6144 4.40117C22.7865 1.56921 19.0253 0.00617982 15.0236 0C15.0156 0 15.0082 0 15.0002 0C6.8051 0 0.0782645 6.65909 0.000673525 14.8547C-0.0325144 18.349 1.16179 21.7621 3.36318 24.4656C3.40392 24.5155 3.40254 24.5853 3.36157 24.6263L1.33803 26.6423C0.774981 27.2054 0.607897 28.0451 0.912539 28.7814C1.21741 29.5187 1.92969 29.9957 2.7278 29.9966L8.03946 30H8.04152C8.82018 30 9.55214 29.6967 10.1028 29.146C10.6542 28.5949 10.9575 27.8622 10.957 27.0827L10.954 21.7703C10.9531 20.9727 10.4761 20.2604 9.73891 19.9555C9.0026 19.6509 8.16283 19.818 7.59978 20.381C7.5968 20.384 7.5936 20.3872 7.59062 20.3902L7.13103 20.8603C6.6783 21.3229 6.68654 22.0647 7.14934 22.5174C7.55011 22.9095 8.16031 22.9557 8.61075 22.6602L8.61327 27.084C8.61327 27.2903 8.50844 27.4262 8.44573 27.4887C8.38324 27.5514 8.24751 27.6562 8.04152 27.6562C8.04129 27.6562 8.04106 27.6562 8.04106 27.6562L3.64401 27.6533L5.01731 26.2852C5.91292 25.3896 5.98296 23.971 5.1805 22.9857C3.32358 20.7053 2.31627 17.8255 2.34419 14.8769C2.40988 7.96165 8.08501 2.34375 15.0002 2.34375H15.0199C21.9875 2.35451 27.6562 8.03215 27.6562 15C27.6562 17.4955 26.9142 19.9246 25.5102 22.0246C25.1504 22.5625 25.2951 23.2903 25.833 23.6501C26.3708 24.0097 27.0989 23.8653 27.4585 23.3272C29.1211 20.8404 30 17.9608 30 15C30 10.9975 28.4424 7.23335 25.6144 4.40117ZM21.5472 25.8337C19.5785 27.0259 17.3147 27.6562 15 27.6562C14.3527 27.6562 13.8281 28.1808 13.8281 28.8281C13.8281 29.4754 14.3527 30 15 30C17.7429 30 20.4268 29.2525 22.7614 27.8382C23.315 27.5029 23.492 26.7824 23.1566 26.2287C22.8211 25.6753 22.1006 25.4984 21.5472 25.8337Z" fill="#292929"/>
</g>
<defs>
<clipPath id="clip0">
<rect width="30" height="30" fill="white"/>
</clipPath>
</defs>
</svg>
