<svg width="40" height="40" viewBox="0 0 40 40" fill="none" xmlns="http://www.w3.org/2000/svg">
<g clip-path="url(#clip0)">
<path d="M28.5714 7.14282H4.28571C1.91878 7.14282 0 9.0616 0 11.4285V35.7142C0 38.0811 1.91878 39.9999 4.28571 39.9999H28.5714C30.9383 39.9999 32.8571 38.0811 32.8571 35.7142V11.4285C32.8571 9.0616 30.9383 7.14282 28.5714 7.14282ZM30 35.7143C30 36.5033 29.3604 37.1429 28.5714 37.1429H4.28571C3.49671 37.1429 2.85711 36.5033 2.85711 35.7143V11.4285C2.85711 10.6395 3.49671 9.99994 4.28571 9.99994H28.5714C29.3604 9.99994 30 10.6395 30 11.4285V35.7143Z" fill="#767676"/>
<path d="M35.7143 0H10.0001C7.63313 0 5.71436 1.91878 5.71436 4.28571C5.71436 5.07472 6.35395 5.71431 7.14295 5.71431C7.93196 5.71431 8.57147 5.07472 8.57147 4.28571C8.57147 3.49671 9.21106 2.85711 10.0001 2.85711H35.7143C36.5033 2.85711 37.1429 3.49671 37.1429 4.28571V30C37.1429 30.789 36.5033 31.4286 35.7143 31.4286C34.9253 31.4286 34.2857 32.0682 34.2857 32.8572C34.2857 33.6462 34.9253 34.2858 35.7143 34.2858C38.0813 34.2858 40 32.367 40 30.0001V4.28571C40 1.91878 38.0813 0 35.7143 0Z" fill="#767676"/>
</g>
<defs>
<clipPath id="clip0">
<rect width="40" height="40" fill="white"/>
</clipPath>
</defs>
</svg>
