<svg width="32" height="32" viewBox="0 0 32 32" fill="none" xmlns="http://www.w3.org/2000/svg">
<g clip-path="url(#clip0)">
<path d="M19.7705 12.2288C19.5105 11.9688 19.0879 11.9688 18.8279 12.2288C18.5679 12.4888 18.5679 12.9128 18.8279 13.1715C19.5825 13.9262 19.9999 14.9302 19.9999 15.9995C19.9999 18.2048 18.2052 19.9995 15.9999 19.9995C14.9306 19.9995 13.9266 19.5835 13.1719 18.8275C12.9119 18.5675 12.4892 18.5675 12.2292 18.8275C11.9692 19.0862 11.9692 19.5102 12.2292 19.7702C13.2345 20.7782 14.5745 21.3329 15.9999 21.3329C18.9412 21.3329 21.3332 18.9409 21.3332 15.9996C21.3332 14.5741 20.7785 13.2341 19.7705 12.2288Z" fill="black"/>
<path d="M16.9296 10.7581C16.6269 10.7048 16.3176 10.6661 16.0003 10.6661C13.059 10.6661 10.667 13.0581 10.667 15.9994C10.667 16.3168 10.7057 16.6261 10.7603 16.9288C10.8176 17.2514 11.099 17.4794 11.415 17.4794C11.4537 17.4794 11.4923 17.4767 11.5323 17.4688C11.8936 17.4047 12.1363 17.0581 12.0723 16.6968C12.031 16.4701 12.0003 16.2394 12.0003 15.9994C12.0003 13.7941 13.795 11.9994 16.0003 11.9994C16.2403 11.9994 16.471 12.0301 16.6976 12.0701C17.0523 12.1421 17.4056 11.8914 17.4696 11.5301C17.5336 11.1688 17.291 10.8221 16.9296 10.7581Z" fill="black"/>
<path d="M31.8415 15.5688C31.6908 15.3902 28.0842 11.1809 23.1095 8.60354C22.7868 8.43423 22.3802 8.56223 22.2108 8.89023C22.0415 9.21692 22.1695 9.61954 22.4975 9.78892C26.3295 11.7729 29.3908 14.8689 30.4375 15.9996C28.8482 17.7209 22.5935 23.9996 16.0002 23.9996C13.7629 23.9996 11.5082 23.4596 9.29619 22.3929C8.96819 22.2316 8.56688 22.3716 8.40688 22.7036C8.24557 23.0343 8.38557 23.4329 8.71757 23.5929C11.1109 24.7489 13.5616 25.3329 16.0002 25.3329C24.2149 25.3329 31.5349 16.7942 31.8429 16.4302C32.0535 16.1822 32.0521 15.8182 31.8415 15.5688Z" fill="black"/>
<path d="M20.3747 7.43426C18.8574 6.92357 17.3854 6.66626 16.0001 6.66626C7.78539 6.66626 0.465402 15.2049 0.157403 15.5689C-0.0372843 15.7982 -0.0532843 16.1316 0.12009 16.3809C0.21209 16.5129 2.41609 19.6422 6.23608 22.1796C6.34939 22.2556 6.47608 22.2916 6.60408 22.2916C6.81877 22.2916 7.03076 22.1876 7.15876 21.9916C7.36276 21.6863 7.27876 21.2716 6.97208 21.0689C4.16677 19.2036 2.24677 16.9516 1.52809 16.0356C3.06277 14.3689 9.35876 7.99963 16.0001 7.99963C17.2414 7.99963 18.5707 8.23432 19.9494 8.69694C20.2987 8.82226 20.6774 8.62894 20.7934 8.27826C20.9107 7.92895 20.7241 7.55163 20.3747 7.43426Z" fill="black"/>
<path d="M26.8043 3.19549C26.5443 2.93549 26.1216 2.93549 25.8616 3.19549L3.195 25.8621C2.935 26.1221 2.935 26.5448 3.195 26.8048C3.32569 26.9341 3.49631 26.9995 3.667 26.9995C3.83769 26.9995 4.00831 26.9342 4.13769 26.8048L26.8043 4.13817C27.0643 3.87817 27.0643 3.45549 26.8043 3.19549Z" fill="black"/>
</g>
<defs>
<clipPath id="clip0">
<rect width="32" height="32" fill="white"/>
</clipPath>
</defs>
</svg>
