<svg width="30" height="30" viewBox="0 0 30 30" fill="none" xmlns="http://www.w3.org/2000/svg">
<path d="M24.1406 17.5852C24.7879 17.5852 25.3125 18.1098 25.3125 18.7571V20.1633C25.3125 20.8106 24.7879 21.3352 24.1406 21.3352H21.4453C20.798 21.3352 20.2734 20.8106 20.2734 20.1633V18.7571C20.2734 18.1098 20.798 17.5852 21.4453 17.5852H24.1406ZM27.6562 15.4758V11.9602H2.34375V21.3281C2.34375 22.6204 3.39523 23.6719 4.6875 23.6719H25.3125C26.6048 23.6719 27.6562 22.6204 27.6562 21.3281C27.6562 20.6808 28.1808 20.1562 28.8281 20.1562C29.4754 20.1562 30 20.6808 30 21.3281C30 23.9129 27.8973 26.0156 25.3125 26.0156H4.6875C2.10274 26.0156 0 23.9129 0 21.3281V8.67188C0 6.08711 2.10274 3.98438 4.6875 3.98438H25.3125C27.8973 3.98438 30 6.08711 30 8.67188V15.4758C30 16.1231 29.4754 16.6477 28.8281 16.6477C28.1808 16.6477 27.6562 16.1231 27.6562 15.4758ZM27.6562 9.61647V8.67188C27.6562 7.37961 26.6048 6.32812 25.3125 6.32812H4.6875C3.39523 6.32812 2.34375 7.37961 2.34375 8.67188V9.61647H27.6562ZM5.85938 14.304C5.2121 14.304 4.6875 14.8286 4.6875 15.4758C4.6875 16.1231 5.2121 16.6477 5.85938 16.6477H15.5273C16.1746 16.6477 16.6992 16.1231 16.6992 15.4758C16.6992 14.8286 16.1746 14.304 15.5273 14.304H5.85938Z" fill="#292929"/>
</svg>
