<svg width="55" height="55" viewBox="0 0 55 55" fill="none" xmlns="http://www.w3.org/2000/svg">
<path d="M27.4992 0C15.8126 0 6.30518 9.5087 6.30518 21.1965C6.30518 29.548 9.80162 37.9958 16.4165 45.6268C21.3572 51.3265 26.2536 54.5557 26.4598 54.6904C26.7754 54.8969 27.1374 55 27.4994 55C27.8612 55 28.2232 54.8969 28.5391 54.6904C28.7451 54.5557 33.6422 51.3265 38.5828 45.6271C45.1983 37.9958 48.695 29.548 48.695 21.1965C48.6947 9.5087 39.1863 0 27.4992 0ZM27.4992 50.7671C23.6012 47.8625 10.1051 36.6836 10.1051 21.1965C10.1051 11.604 17.9079 3.79993 27.4992 3.79993C37.0912 3.79993 44.8948 11.604 44.8948 21.1965C44.8948 36.6836 31.3974 47.8625 27.4992 50.7671Z" fill="#8C8C8C"/>
<path d="M27.5004 12.7802C22.862 12.7802 19.0884 16.5541 19.0884 21.193C19.0884 25.8307 22.862 29.6038 27.5004 29.6038C32.1389 29.6038 35.9122 25.8307 35.9122 21.193C35.9122 16.5543 32.1386 12.7802 27.5004 12.7802ZM27.5004 25.8039C24.9573 25.8039 22.8883 23.7354 22.8883 21.193C22.8883 18.6493 24.9573 16.5801 27.5004 16.5801C30.0433 16.5801 32.1123 18.6493 32.1123 21.193C32.1123 23.7354 30.0433 25.8039 27.5004 25.8039Z" fill="#8C8C8C"/>
</svg>
