<svg width="42" height="42" viewBox="0 0 42 42" fill="none" xmlns="http://www.w3.org/2000/svg">
<g clip-path="url(#clip0)">
<path d="M38.9099 6.99989C38.9099 10.1411 36.3638 12.6876 33.2225 12.6876C30.0813 12.6876 27.5352 10.1411 27.5352 6.99989C27.5352 3.85899 30.0813 1.3125 33.2225 1.3125C36.3638 1.3125 38.9099 3.85899 38.9099 6.99989Z" fill="#343434"/>
<path d="M33.2225 14.0001C29.362 14.0001 26.2227 10.8605 26.2227 6.99989C26.2227 3.13962 29.362 0 33.2225 0C37.0831 0 40.2224 3.13962 40.2224 6.99989C40.2224 10.8605 37.0831 14.0001 33.2225 14.0001ZM33.2225 2.625C30.8094 2.625 28.8477 4.58862 28.8477 6.99989C28.8477 9.41148 30.8094 11.3751 33.2225 11.3751C35.6357 11.3751 37.5974 9.41148 37.5974 6.99989C37.5974 4.58862 35.6357 2.625 33.2225 2.625Z" fill="#343434"/>
<path d="M38.9099 35.0002C38.9099 38.1411 36.3638 40.6876 33.2225 40.6876C30.0813 40.6876 27.5352 38.1411 27.5352 35.0002C27.5352 31.859 30.0813 29.3125 33.2225 29.3125C36.3638 29.3125 38.9099 31.859 38.9099 35.0002Z" fill="#343434"/>
<path d="M33.2225 42.0001C29.362 42.0001 26.2227 38.8605 26.2227 35.0002C26.2227 31.1396 29.362 28 33.2225 28C37.0831 28 40.2224 31.1396 40.2224 35.0002C40.2224 38.8605 37.0831 42.0001 33.2225 42.0001ZM33.2225 30.625C30.8094 30.625 28.8477 32.5886 28.8477 35.0002C28.8477 37.4115 30.8094 39.3751 33.2225 39.3751C35.6357 39.3751 37.5974 37.4115 37.5974 35.0002C37.5974 32.5886 35.6357 30.625 33.2225 30.625Z" fill="#343434"/>
<path d="M14.4103 20.9999C14.4103 24.1411 11.8638 26.6873 8.72255 26.6873C5.58165 26.6873 3.03516 24.1411 3.03516 20.9999C3.03516 17.8587 5.58165 15.3125 8.72255 15.3125C11.8638 15.3125 14.4103 17.8587 14.4103 20.9999Z" fill="#343434"/>
<path d="M8.72255 27.9998C4.86227 27.9998 1.72266 24.8605 1.72266 20.9999C1.72266 17.1393 4.86227 14 8.72255 14C12.5831 14 15.7228 17.1393 15.7228 20.9999C15.7228 24.8605 12.5831 27.9998 8.72255 27.9998ZM8.72255 16.625C6.30936 16.625 4.34766 18.5883 4.34766 20.9999C4.34766 23.4115 6.30936 25.3748 8.72255 25.3748C11.1361 25.3748 13.0978 23.4115 13.0978 20.9999C13.0978 18.5883 11.1361 16.625 8.72255 16.625Z" fill="#343434"/>
<path d="M12.8548 20.1601C12.2456 20.1601 11.6541 19.8432 11.3321 19.2764C10.8543 18.4381 11.1485 17.3688 11.9867 16.8891L28.2247 7.63176C29.063 7.15047 30.1323 7.44463 30.612 8.28609C31.0898 9.12435 30.7956 10.1936 29.9573 10.6733L13.719 19.9307C13.446 20.0864 13.1486 20.1601 12.8548 20.1601Z" fill="#343434"/>
<path d="M29.0908 34.5978C28.7967 34.5978 28.4993 34.5241 28.2263 34.3683L11.9879 25.111C11.1497 24.6332 10.8558 23.5639 11.3336 22.7237C11.8095 21.8839 12.8803 21.5881 13.7205 22.0694L29.9589 31.3268C30.7971 31.8045 31.091 32.8738 30.6132 33.714C30.2896 34.2809 29.698 34.5978 29.0908 34.5978Z" fill="#343434"/>
</g>
<defs>
<clipPath id="clip0">
<rect width="42" height="42" fill="white"/>
</clipPath>
</defs>
</svg>
