<svg width="55" height="55" viewBox="0 0 55 55" fill="none" xmlns="http://www.w3.org/2000/svg">
<g clip-path="url(#clip0)">
<path d="M47.0281 7.20491C42.3816 2.55844 36.2036 -0.000259879 29.6328 1.97973e-08C28.5561 1.97973e-08 27.6836 0.872739 27.6836 1.94924C27.6836 3.02574 28.5563 3.89848 29.6328 3.89848C35.1624 3.89822 40.3612 6.05148 44.2714 9.96165C48.1818 13.8718 50.3351 19.0708 50.3348 24.6007C50.3348 25.6772 51.2073 26.5499 52.284 26.5499C53.3605 26.5499 54.2333 25.6772 54.2333 24.601C54.2335 18.0294 51.6748 11.8514 47.0281 7.20491Z" fill="#D18B5A"/>
<path d="M39.0097 24.601C39.0097 25.6775 39.8825 26.5502 40.9592 26.5499C42.0357 26.5499 42.9082 25.6772 42.9082 24.6007C42.9077 17.282 36.9524 11.3269 29.6331 11.3259C29.6328 11.3259 29.6331 11.3259 29.6328 11.3259C28.5563 11.3259 27.6839 12.1983 27.6836 13.2748C27.6836 14.3513 28.5561 15.2241 29.6326 15.2243C34.8027 15.2251 39.0092 19.4313 39.0097 24.601Z" fill="#D18B5A"/>
<path d="M34.6961 34.5395C31.725 34.3856 30.2113 36.5953 29.4854 37.6567C28.8775 38.5453 29.1052 39.7582 29.9938 40.3662C30.8824 40.9741 32.0953 40.7464 32.7032 39.8578C33.5609 38.6038 33.9494 38.4065 34.4765 38.4315C36.1635 38.6298 42.8078 43.4987 43.4732 45.0212C43.64 45.4695 43.6338 45.909 43.4547 46.4436C42.7571 48.514 41.6024 49.9689 40.1148 50.6509C38.7014 51.2988 36.9687 51.24 35.105 50.4817C28.1456 47.6451 22.0656 43.6866 17.0339 38.7158C17.0319 38.7137 17.0298 38.7119 17.028 38.7098C12.0675 33.6831 8.11631 27.6109 5.28445 20.6622C4.52581 18.7969 4.46707 17.0639 5.115 15.6508C5.79697 14.1632 7.25188 13.0085 9.32042 12.3117C9.85685 12.1318 10.2956 12.1261 10.7397 12.2914C12.2677 12.9591 17.1363 19.6031 17.3328 21.2711C17.3609 21.818 17.1621 22.2063 15.9091 23.0624C15.0203 23.6695 14.7918 24.8824 15.3992 25.7713C16.0063 26.6601 17.219 26.8883 18.1081 26.2812C19.1701 25.5561 21.3792 24.0466 21.2259 21.0653C21.0569 17.9512 14.9992 9.70437 12.1047 8.64008C10.8174 8.16031 9.46336 8.15199 8.07862 8.61669C4.96296 9.6659 2.71275 11.5367 1.57128 14.0265C0.464111 16.442 0.499197 19.2445 1.67394 22.1325C4.70462 29.5687 8.94486 36.0752 14.2767 41.472C14.2897 41.4853 14.3029 41.4983 14.3164 41.511C19.7093 46.8329 26.2084 51.0654 33.6347 54.0924C35.1218 54.6972 36.5864 55 37.987 55C39.3057 55 40.5683 54.7318 41.7394 54.1948C44.2295 53.0536 46.1 50.8037 47.15 47.6859C47.6136 46.3038 47.6061 44.9502 47.1299 43.6689C46.062 40.7667 37.8152 34.7089 34.6961 34.5395Z" fill="#D18B5A"/>
</g>
<defs>
<clipPath id="clip0">
<rect width="55" height="55" fill="white"/>
</clipPath>
</defs>
</svg>
