<svg width="68" height="50" viewBox="0 0 68 50" fill="none" xmlns="http://www.w3.org/2000/svg">
<g clip-path="url(#clip0)">
<path d="M25.4286 17.9346L21.8203 39.1096H27.5913L31.2026 17.9346H25.4286Z" fill="#858585"/>
<path d="M16.9817 17.9581L11.3295 32.3988L10.7269 30.2184C9.61215 27.5912 6.44762 23.8181 2.73242 21.4402L7.90075 39.099L14.0072 39.0886L23.0955 17.9536L16.9817 17.9581Z" fill="#858585"/>
<path d="M8.53598 19.4737C8.20053 18.1839 7.22831 17.7994 6.02157 17.7534H-2.92579L-3 18.175C3.96285 19.8641 8.57012 23.934 10.4819 28.8278L8.53598 19.4737Z" fill="#858585"/>
<path d="M42.8989 21.994C44.787 21.9643 46.1555 22.377 47.2182 22.8044L47.7392 23.0494L48.52 18.4599C47.3771 18.0309 45.5855 17.5708 43.3501 17.5708C37.6475 17.5708 33.628 20.4429 33.5968 24.5589C33.5597 27.6002 36.46 29.2983 38.6509 30.312C40.8996 31.351 41.6536 32.0116 41.6432 32.9392C41.6254 34.3567 39.8502 35.0069 38.1922 35.0069C35.8812 35.0069 34.6536 34.6877 32.7582 33.8981L32.0146 33.5597L31.2026 38.299C32.5533 38.8913 35.0455 39.4004 37.6326 39.4271C43.699 39.4271 47.6413 36.5891 47.6828 32.1912C47.7081 29.7851 46.1688 27.949 42.8336 26.4425C40.815 25.4599 39.58 24.8068 39.5919 23.8152C39.5919 22.9351 40.6398 21.994 42.8989 21.994Z" fill="#858585"/>
<path d="M63.3305 17.9585H58.8717C57.4868 17.9585 56.4567 18.3355 55.8482 19.7159L47.2793 39.1216H53.3397C53.3397 39.1216 54.3282 36.5122 54.5524 35.9408C55.2158 35.9408 61.1041 35.9497 61.9427 35.9497C62.1149 36.6889 62.6463 39.1216 62.6463 39.1216H68.0001L63.3305 17.9585ZM56.2133 31.6066C56.6883 30.391 58.5125 25.6887 58.5125 25.6887C58.4813 25.7466 58.983 24.4642 59.2813 23.6671L59.6702 25.4928C59.6702 25.4928 60.776 30.5483 61.0076 31.6066H56.2133Z" fill="#858585"/>
</g>
<defs>
<clipPath id="clip0">
<rect width="67.5645" height="55.9708" fill="white" transform="translate(0.435547 0.649414)"/>
</clipPath>
</defs>
</svg>
